<?xml version="1.0" encoding="UTF-8" standalone="no"?>
<svg
   xmlns:dc="http://purl.org/dc/elements/1.1/"
   xmlns:cc="http://creativecommons.org/ns#"
   xmlns:rdf="http://www.w3.org/1999/02/22-rdf-syntax-ns#"
   xmlns:svg="http://www.w3.org/2000/svg"
   xmlns="http://www.w3.org/2000/svg"
   xmlns:sodipodi="http://sodipodi.sourceforge.net/DTD/sodipodi-0.dtd"
   xmlns:inkscape="http://www.inkscape.org/namespaces/inkscape"
   width="64"
   height="64"
   viewBox="0 0 200 200"
   version="1.2"
   id="svg374"
   sodipodi:docname="phonebot_logo.svg"
   inkscape:export-filename="/home/maxschommer/Pictures/phonebot_logo.png"
   inkscape:export-xdpi="300"
   inkscape:export-ydpi="300"
   inkscape:version="0.92.5 (2060ec1f9f, 2020-04-08)">
  <metadata
     id="metadata378">
    <rdf:RDF>
      <cc:Work
         rdf:about="">
        <dc:format>image/svg+xml</dc:format>
        <dc:type
           rdf:resource="http://purl.org/dc/dcmitype/StillImage" />
        <dc:title></dc:title>
      </cc:Work>
    </rdf:RDF>
  </metadata>
  <sodipodi:namedview
     pagecolor="#ffffff"
     bordercolor="#666666"
     borderopacity="1"
     objecttolerance="10"
     gridtolerance="10"
     guidetolerance="10"
     inkscape:pageopacity="0"
     inkscape:pageshadow="2"
     inkscape:window-width="1848"
     inkscape:window-height="1016"
     id="namedview376"
     showgrid="true"
     units="px"
     inkscape:zoom="8.2156865"
     inkscape:cx="28.882914"
     inkscape:cy="33.936561"
     inkscape:window-x="72"
     inkscape:window-y="27"
     inkscape:window-maximized="1"
     inkscape:current-layer="g368">
    <inkscape:grid
       type="xygrid"
       id="grid5309" />
  </sodipodi:namedview>
  <defs
     id="defs214" />
  <g
     id="g372"
     transform="translate(-456.1598,-2251.022)"
     style="fill:none;fill-rule:evenodd;stroke:#000000;stroke-width:1;stroke-linecap:square;stroke-linejoin:bevel">
    <g
       font-size="-4.16667"
       font-weight="400"
       font-style="normal"
       id="g220"
       style="font-style:normal;font-weight:400;font-size:0px;font-family:;fill:none;stroke:#000000;stroke-width:1;stroke-linecap:square;stroke-linejoin:bevel;stroke-opacity:1" />
    <g
       stroke-miterlimit="2"
       font-size="-4.16667"
       font-weight="400"
       font-style="normal"
       id="g222"
       style="font-style:normal;font-weight:400;font-size:0px;font-family:;fill:#000000;fill-opacity:1;stroke:#000000;stroke-width:1;stroke-linecap:butt;stroke-linejoin:miter;stroke-miterlimit:2;stroke-opacity:1" />
    <g
       font-size="-4.16667"
       font-weight="400"
       font-style="normal"
       id="g370"
       style="font-style:normal;font-weight:400;font-size:0px;font-family:;fill:none;stroke:#000000;stroke-width:1;stroke-linecap:square;stroke-linejoin:bevel;stroke-opacity:1" />
    <g
       transform="translate(-431.81947,-578.43088)"
       font-size="-4.16667"
       font-weight="400"
       font-style="normal"
       id="g368"
       style="font-style:normal;font-weight:400;font-size:0px;fill:#000000;fill-opacity:1;fill-rule:evenodd;stroke:#000000;stroke-width:5;stroke-linecap:round;stroke-linejoin:bevel;stroke-opacity:1">
      <g
         id="g5307"
         transform="translate(0.02819686,0.02243791)">
        <path
           inkscape:connector-curvature="0"
           id="polyline224"
           d="m 960.81872,2968.6164 v 17.2567"
           style="vector-effect:none;fill:none;stroke-width:1.35134649" />
        <path
           inkscape:connector-curvature="0"
           id="polyline226"
           d="m 955.34031,2956.5814 0.17841,0.1594 0.17566,0.1594 0.17567,0.165 0.173,0.1648 0.16759,0.1703 0.16751,0.1702 0.16492,0.1757 0.1621,0.1756 0.15676,0.1784 0.15677,0.1811 0.1541,0.1838 0.15136,0.1865 0.1486,0.1865 0.14328,0.1918 0.1432,0.1919 0.14053,0.1947 0.13512,0.1946 0.13246,0.1999 0.13245,0.2001 0.12705,0.2026 0.1243,0.2027 0.12163,0.2082 0.11889,0.2081 0.11355,0.2081 0.11348,0.2108 0.10815,0.2135 0.10539,0.2162 0.10266,0.2162 0.0973,0.2162 0.0973,0.219 0.0918,0.2216 0.0892,0.2216 0.0865,0.2243 0.0808,0.2244 0.0807,0.2243 0.0758,0.227 0.0733,0.2297 0.0674,0.227 0.0649,0.2325 0.0624,0.2298 0.0591,0.2323 0.0541,0.2325 0.0516,0.2324 0.0483,0.2351 0.0458,0.2352 0.0408,0.2351 0.0375,0.2379 0.0325,0.2351 0.0325,0.2378 0.0242,0.2379 0.0241,0.2378 0.0191,0.2378 0.0158,0.2406 0.0133,0.2378 0.008,0.2378 0.008,0.2406 v 0.2378"
           style="vector-effect:none;fill:none;stroke-width:1.35134649" />
        <path
           inkscape:connector-curvature="0"
           id="polyline228"
           d="m 943.67548,3007.7839 -0.18107,0.1513 -0.18649,0.1514 -0.18915,0.1459 -0.18915,0.146 -0.1919,0.1405 -0.19465,0.1406 -0.19731,0.1351 -0.19723,0.1324 -0.20006,0.1297 -0.20264,0.1271 -0.20272,0.1243 -0.20813,0.1216 -0.20814,0.1162 -0.20805,0.1163 -0.2108,0.1108 -0.21354,0.108 -0.21355,0.1054 -0.21621,0.1 -0.21887,0.1001 -0.21896,0.095 -0.21887,0.092 -0.22162,0.089 -0.22437,0.086 -0.22428,0.081 -0.22437,0.078 -0.22704,0.076 -0.22703,0.073 -0.22969,0.067 -0.2297,0.065 -0.22978,0.062 -0.23244,0.057 -0.23237,0.057 -0.23244,0.052 -0.23519,0.046 -0.23236,0.046 -0.23786,0.041 -0.2351,0.035 -0.2352,0.035 -0.23785,0.03 -0.23777,0.027 -0.23786,0.022 -0.23785,0.022 -0.23786,0.013 -0.23777,0.013 -0.23786,0.01 -0.24052,0.01 h -0.23785 -0.23786 l -0.24052,-0.01 -0.23785,-0.01 -0.23786,-0.013 -0.23785,-0.016 -0.23778,-0.019 -0.23785,-0.024 -0.23786,-0.027 -0.23785,-0.03 -0.23511,-0.035 -0.23511,-0.037 -0.23519,-0.041 -0.23511,-0.043 -0.23511,-0.048 -0.23244,-0.052 -0.23244,-0.057 -0.23245,-0.057 -0.22969,-0.062 -0.22978,-0.065 -0.2297,-0.07 -0.22703,-0.073 -0.22704,-0.076 -0.22428,-0.078 -0.22437,-0.081 -0.22162,-0.086 -0.22162,-0.089 -0.22162,-0.092 -0.21888,-0.095 -0.2162,-0.1 -0.21621,-0.1027 -0.21355,-0.1054 -0.21355,-0.1081 -0.21079,-0.1108 -0.20814,-0.1162 -0.20805,-0.1162 -0.20538,-0.1217 -0.20547,-0.1243 -0.20264,-0.127 -0.20006,-0.1297 -0.19731,-0.1351 -0.19723,-0.1353 -0.1919,-0.1405 -0.1919,-0.1405 -0.1919,-0.146 -0.18649,-0.1459 -0.18648,-0.1514 -0.18383,-0.154 -0.17833,-0.1541 -0.18107,-0.1594 -0.17567,-0.1622 -0.173,-0.1621 -0.17025,-0.1676 -0.17026,-0.1676 -0.16492,-0.173 -0.16484,-0.1729 -0.15943,-0.1756 -0.15952,-0.1785 -0.15402,-0.181"
           style="vector-effect:none;fill:none;stroke-width:1.35134649" />
        <path
           inkscape:connector-curvature="0"
           id="polyline230"
           d="m 960.81872,2985.8731 v 0.2379 l -0.008,0.2405 -0.008,0.2379 -0.0133,0.2377 -0.0158,0.2406 -0.0192,0.2379 -0.0241,0.2378 -0.0241,0.2378 -0.0325,0.2351 -0.0325,0.2379 -0.0375,0.2351 -0.0408,0.2352 -0.0458,0.2351 -0.0458,0.2351 -0.0516,0.2324 -0.0566,0.2325 -0.0566,0.2324 -0.0624,0.2297 -0.0649,0.2298 -0.0699,0.2297 -0.0733,0.227 -0.0758,0.2271 -0.0783,0.227 -0.0808,0.2243 -0.0865,0.2216 -0.0892,0.2216 -0.0919,0.2217 -0.0946,0.2189 -0.1,0.2162 -0.10273,0.2162 -0.1054,0.2162 -0.10806,0.2108 -0.11081,0.2136 -0.11623,0.2081 -0.11897,0.2081 -0.11888,0.2054 -0.1243,0.2054 -0.12704,0.2027 -0.13246,0.2 -0.13246,0.1973 -0.13512,0.1973 -0.14053,0.1946 -0.14053,0.1919 -0.14595,0.1892 -0.14594,0.1892 -0.15135,0.1837 -0.15402,0.1839 -0.15677,0.181 -0.15677,0.1784 -0.16217,0.1756 -0.16485,0.1757 -0.16492,0.1703 -0.17025,0.1703 -0.17026,0.1648 -0.17566,0.1649 -0.17567,0.1595 -0.17841,0.1594 -0.18108,0.1568"
           style="vector-effect:none;fill:none;stroke-width:1.35134649" />
        <path
           inkscape:connector-curvature="0"
           id="polyline232"
           d="m 905.62703,2987.5353 -0.15136,-0.1838 -0.15135,-0.1865 -0.1487,-0.1892 -0.14594,-0.1891 -0.14053,-0.1947 -0.14053,-0.1945 -0.13512,-0.1973 -0.13246,-0.1974 -0.13237,-0.2027 -0.12705,-0.2026 -0.12438,-0.2055 -0.11889,-0.2054 -0.11888,-0.208 -0.11622,-0.2109 -0.11081,-0.2135 -0.10815,-0.2135 -0.1054,-0.2135 -0.10265,-0.2189 -0.0973,-0.2162 -0.0973,-0.2217 -0.0919,-0.2216 -0.0864,-0.2216 -0.0865,-0.2243 -0.0807,-0.2244 -0.0808,-0.227 -0.0733,-0.227 -0.0733,-0.2297 -0.0674,-0.2298 -0.0649,-0.2297 -0.0624,-0.2324 -0.0599,-0.2325 -0.0541,-0.2324 -0.0516,-0.2351 -0.0458,-0.2351 -0.0433,-0.2352 -0.0408,-0.2351 -0.0375,-0.2379 -0.0325,-0.2351 -0.03,-0.2379 -0.0275,-0.2405 -0.0216,-0.2378 -0.0191,-0.2378 -0.0158,-0.2406 -0.0108,-0.2378 -0.0108,-0.2406 v -0.2405 -0.2379 -0.2405 l 0.008,-0.2378 0.008,-0.2406 0.0133,-0.2405 0.0167,-0.2378 0.0216,-0.2379 0.0241,-0.2405 0.0275,-0.2379 0.0325,-0.2378 0.035,-0.2351 0.0375,-0.2379 0.0408,-0.2351 0.0458,-0.2351 0.0483,-0.2352 0.0541,-0.2323 0.0541,-0.2352 0.0624,-0.2325 0.0624,-0.2297 0.0649,-0.2297 0.0699,-0.2298 0.0733,-0.227 0.0783,-0.227 0.0783,-0.2271 0.0838,-0.2242 0.0865,-0.2244 0.0918,-0.2216 0.0919,-0.2216 0.0973,-0.2189 0.1,-0.2162 0.1054,-0.2162 0.1054,-0.2163 0.11081,-0.2107 0.11356,-0.2136 0.11622,-0.2081 0.11888,-0.2081 0.12164,-0.2054 0.12429,-0.2054 0.12971,-0.2028 0.13246,-0.1999 0.13246,-0.1973 0.13778,-0.1974 0.14053,-0.1918 0.14328,-0.1919 0.14595,-0.1919 0.15135,-0.1865 0.15136,-0.1864"
           style="vector-effect:none;fill:none;fill-opacity:1;stroke-width:1.35134649" />
        <path
           inkscape:connector-curvature="0"
           id="polyline234"
           d="m 943.80528,2946.5382 11.53503,10.0432"
           style="vector-effect:none;fill:none;stroke-width:1.35134649" />
        <path
           inkscape:connector-curvature="0"
           id="polyline236"
           d="m 921.1837,3005.9136 -15.55667,-18.3783"
           style="vector-effect:none;fill:none;stroke-width:1.35134649" />
        <path
           inkscape:connector-curvature="0"
           id="polyline238"
           d="m 921.05399,2948.3678 0.15402,-0.1837 0.1541,-0.1784 0.15944,-0.1757 0.16217,-0.1757 0.16218,-0.173 0.16751,-0.1675 0.16759,-0.1676 0.173,-0.1648 0.17292,-0.1622 0.17566,-0.1594 0.18116,-0.1568 0.17833,-0.1541 0.18382,-0.1513 0.18649,-0.1486 0.18649,-0.146 0.18915,-0.1433 0.1919,-0.1405 0.19456,-0.1379 0.19732,-0.1351 0.19731,-0.1297 0.19997,-0.1297 0.20272,-0.1243 0.20273,-0.1244 0.20538,-0.1189 0.20814,-0.1162 0.20805,-0.1135 0.2108,-0.1109 0.21088,-0.108 0.21346,-0.1028 0.21621,-0.1 0.21621,-0.097 0.21895,-0.095 0.21888,-0.092 0.22162,-0.086 0.22162,-0.087 0.22437,-0.081 0.22428,-0.076 0.22704,-0.076 0.22436,-0.07 0.2297,-0.067 0.22703,-0.065 0.2297,-0.062 0.23244,-0.057 0.22978,-0.054 0.23245,-0.048 0.23511,-0.048 0.23244,-0.043 0.23511,-0.041 0.23511,-0.035 0.23519,-0.035 0.2351,-0.03 0.23511,-0.024 0.23786,-0.024 0.23785,-0.019 0.23511,-0.013 0.23786,-0.013 0.23785,-0.01 0.23777,-0.01 h 0.23786 0.23786 l 0.23785,0.01 0.23786,0.01 0.2351,0.013 0.23786,0.016 0.23777,0.019 0.23519,0.024 0.23786,0.027 0.23511,0.03 0.23511,0.032 0.23519,0.038 0.23236,0.041 0.23519,0.046 0.23244,0.048 0.23236,0.052 0.22978,0.054 0.23245,0.057 0.22969,0.062 0.22704,0.065 0.22703,0.07 0.22703,0.07 0.22703,0.076 0.22429,0.078 0.22162,0.081 0.22162,0.086 0.22162,0.089 0.21896,0.089 0.21887,0.097 0.21621,0.097 0.21355,0.1026 0.21354,0.1027 0.21346,0.1082 0.20814,0.1108 0.2108,0.1135 0.20538,0.1189 0.20539,0.1189 0.20272,0.1243 0.20272,0.1271 0.19731,0.127 0.19998,0.1324 0.19456,0.1352 0.1919,0.1378 0.1919,0.1433 0.18924,0.1432 0.18915,0.1459 0.18382,0.1487 0.18374,0.1513 0.17842,0.1568"
           style="vector-effect:none;fill:none;stroke-width:1.35134649" />
        <path
           inkscape:connector-curvature="0"
           id="polyline240"
           d="m 905.54052,2967.0165 15.51347,-18.6487"
           style="vector-effect:none;fill:none;stroke-width:1.35134649" />
        <path
           inkscape:connector-curvature="0"
           id="polyline242"
           d="m 955.17005,2998.0569 -11.49457,9.727"
           style="vector-effect:none;fill:none;stroke-width:1.35134649" />
        <polyline
           transform="matrix(0.27026932,0,0,0.27026932,542.09316,2580.5448)"
           style="vector-effect:none;fill:none"
           id="polyline244"
           points="1738.27,1145.89 1738.27,1082.05 " />
        <polyline
           transform="matrix(0.27026932,0,0,0.27026932,542.09316,2580.5448)"
           style="vector-effect:none;fill:none"
           id="polyline246"
           points="1762.59,1199.33 1761.87,1198.7 1761.16,1198.05 1760.46,1197.4 1759.76,1196.73 1759.08,1196.06 1758.4,1195.37 1757.74,1194.68 1757.08,1193.98 1756.43,1193.27 1755.79,1192.55 1755.17,1191.82 1754.55,1191.09 1753.94,1190.34 1753.34,1189.59 1752.76,1188.83 1752.18,1188.06 1751.61,1187.29 1751.06,1186.5 1750.51,1185.71 1749.98,1184.91 1749.45,1184.11 1748.94,1183.29 1748.44,1182.47 1747.95,1181.65 1747.47,1180.81 1747,1179.98 1746.54,1179.13 1746.1,1178.28 1745.67,1177.42 1745.24,1176.56 1744.83,1175.69 1744.44,1174.81 1744.05,1173.93 1743.67,1173.05 1743.31,1172.16 1742.96,1171.26 1742.62,1170.36 1742.3,1169.46 1741.99,1168.55 1741.68,1167.64 1741.4,1166.72 1741.12,1165.8 1740.86,1164.88 1740.6,1163.95 1740.37,1163.02 1740.14,1162.08 1739.93,1161.15 1739.73,1160.21 1739.54,1159.27 1739.36,1158.32 1739.2,1157.37 1739.05,1156.42 1738.92,1155.47 1738.79,1154.52 1738.68,1153.56 1738.58,1152.61 1738.5,1151.65 1738.43,1150.69 1738.37,1149.73 1738.32,1148.77 1738.29,1147.81 1738.27,1146.85 1738.27,1145.89 " />
        <polyline
           transform="matrix(0.27026932,0,0,0.27026932,542.09316,2580.5448)"
           style="vector-effect:none;fill:none"
           id="polyline248"
           points="1777.05,1211.92 1762.59,1199.33 " />
        <polyline
           transform="matrix(0.27026932,0,0,0.27026932,542.09316,2580.5448)"
           style="vector-effect:none;fill:none"
           id="polyline250"
           points="1797.32,1256.46 1797.31,1255.57 1797.29,1254.69 1797.26,1253.8 1797.21,1252.92 1797.15,1252.04 1797.08,1251.16 1797,1250.27 1796.9,1249.4 1796.78,1248.52 1796.66,1247.64 1796.52,1246.77 1796.37,1245.89 1796.2,1245.03 1796.03,1244.16 1795.83,1243.29 1795.63,1242.43 1795.41,1241.57 1795.18,1240.72 1794.94,1239.87 1794.69,1239.02 1794.42,1238.18 1794.14,1237.34 1793.85,1236.5 1793.54,1235.67 1793.22,1234.85 1792.89,1234.02 1792.55,1233.21 1792.2,1232.4 1791.83,1231.59 1791.45,1230.79 1791.06,1230 1790.66,1229.21 1790.24,1228.43 1789.82,1227.65 1789.38,1226.88 1788.93,1226.12 1788.47,1225.36 1788,1224.61 1787.52,1223.87 1787.02,1223.14 1786.52,1222.41 1786,1221.69 1785.47,1220.98 1784.94,1220.28 1784.39,1219.58 1783.83,1218.89 1783.26,1218.21 1782.69,1217.54 1782.1,1216.88 1781.5,1216.23 1780.89,1215.59 1780.27,1214.95 1779.65,1214.33 1779.01,1213.71 1778.37,1213.11 1777.71,1212.51 1777.05,1211.92 " />
        <polyline
           transform="matrix(0.27026932,0,0,0.27026932,542.09316,2580.5448)"
           style="vector-effect:none;fill:none"
           id="polyline252"
           points="1777.05,1369.84 1762.59,1382.43 " />
        <polyline
           transform="matrix(0.27026932,0,0,0.27026932,542.09316,2580.5448)"
           style="vector-effect:none;fill:none"
           id="polyline254"
           points="1762.59,1382.43 1761.87,1383.07 1761.16,1383.71 1760.46,1384.37 1759.76,1385.03 1759.08,1385.71 1758.4,1386.39 1757.74,1387.08 1757.08,1387.79 1756.43,1388.5 1755.79,1389.22 1755.17,1389.94 1754.55,1390.68 1753.94,1391.42 1753.34,1392.18 1752.76,1392.94 1752.18,1393.7 1751.61,1394.48 1751.06,1395.26 1750.51,1396.06 1749.98,1396.85 1749.45,1397.66 1748.94,1398.47 1748.44,1399.29 1747.95,1400.12 1747.47,1400.95 1747,1401.79 1746.54,1402.64 1746.1,1403.49 1745.67,1404.35 1745.24,1405.21 1744.83,1406.08 1744.44,1406.95 1744.05,1407.83 1743.67,1408.72 1743.31,1409.61 1742.96,1410.5 1742.62,1411.4 1742.3,1412.31 1741.99,1413.22 1741.68,1414.13 1741.4,1415.05 1741.12,1415.97 1740.86,1416.89 1740.6,1417.82 1740.37,1418.75 1740.14,1419.68 1739.93,1420.62 1739.73,1421.56 1739.54,1422.5 1739.36,1423.45 1739.2,1424.39 1739.05,1425.34 1738.92,1426.29 1738.79,1427.25 1738.68,1428.2 1738.58,1429.16 1738.5,1430.12 1738.43,1431.07 1738.37,1432.03 1738.32,1432.99 1738.29,1433.95 1738.27,1434.91 1738.27,1435.87 " />
        <polyline
           transform="matrix(0.27026932,0,0,0.27026932,542.09316,2580.5448)"
           style="vector-effect:none;fill:none"
           id="polyline256"
           points="1738.27,1499.72 1738.27,1500.68 1738.29,1501.63 1738.32,1502.59 1738.37,1503.54 1738.43,1504.49 1738.5,1505.45 1738.58,1506.4 1738.68,1507.35 1738.79,1508.3 1738.91,1509.25 1739.04,1510.19 1739.19,1511.14 1739.35,1512.08 1739.52,1513.02 1739.71,1513.96 1739.91,1514.89 1740.12,1515.82 1740.34,1516.75 1740.58,1517.68 1740.83,1518.6 1741.09,1519.52 1741.36,1520.43 1741.65,1521.35 1741.94,1522.25 1742.25,1523.16 1742.58,1524.06 1742.91,1524.95 1743.26,1525.84 1743.61,1526.73 1743.98,1527.61 1744.37,1528.49 1744.76,1529.36 1745.17,1530.22 1745.58,1531.08 1746.01,1531.94 1746.45,1532.78 1746.9,1533.63 1747.37,1534.46 1747.84,1535.29 1748.33,1536.12 1748.82,1536.93 1749.33,1537.74 1749.85,1538.54 1750.38,1539.34 1750.92,1540.13 1751.47,1540.91 1752.03,1541.68 1752.6,1542.45 1753.18,1543.21 " />
        <polyline
           transform="matrix(0.27026932,0,0,0.27026932,542.09316,2580.5448)"
           style="vector-effect:none;fill:none"
           id="polyline258"
           points="1733.89,1631.79 1734.67,1631.38 1735.44,1630.95 1736.21,1630.51 1736.97,1630.07 1737.73,1629.6 1738.47,1629.13 1739.21,1628.65 1739.94,1628.16 1740.67,1627.65 1741.39,1627.13 1742.1,1626.61 1742.8,1626.07 1743.49,1625.52 1744.18,1624.97 1744.85,1624.4 1745.52,1623.82 1746.18,1623.23 1746.83,1622.64 1747.47,1622.03 1748.1,1621.41 1748.73,1620.78 1749.34,1620.15 1749.94,1619.5 1750.54,1618.85 1751.12,1618.19 1751.7,1617.52 1752.26,1616.84 1752.82,1616.15 1753.36,1615.45 1753.89,1614.75 1754.42,1614.04 1754.93,1613.32 1755.43,1612.59 1755.92,1611.86 1756.4,1611.11 1756.87,1610.36 1757.32,1609.61 1757.77,1608.85 1758.2,1608.08 1758.63,1607.3 1759.04,1606.52 1759.44,1605.73 1759.82,1604.94 1760.2,1604.14 1760.56,1603.33 1760.91,1602.52 1761.25,1601.7 1761.58,1600.88 1761.89,1600.06 1762.2,1599.23 1762.48,1598.39 1762.76,1597.55 1763.03,1596.71 1763.28,1595.87 1763.52,1595.01 1763.74,1594.16 1763.96,1593.3 1764.16,1592.44 1764.35,1591.58 1764.52,1590.71 1764.68,1589.85 1764.83,1588.98 1764.97,1588.1 1765.09,1587.23 1765.2,1586.35 1765.3,1585.47 1765.38,1584.59 1765.45,1583.71 1765.51,1582.83 1765.55,1581.95 1765.58,1581.07 1765.6,1580.18 1765.61,1579.3 1765.6,1578.42 1765.57,1577.53 1765.54,1576.65 1765.49,1575.77 1765.43,1574.89 1765.35,1574.01 1765.27,1573.13 1765.17,1572.25 1765.05,1571.37 1764.92,1570.5 1764.78,1569.63 1764.63,1568.76 1764.46,1567.89 1764.28,1567.03 1764.09,1566.16 1763.89,1565.3 1763.67,1564.45 1763.44,1563.6 1763.19,1562.75 1762.94,1561.9 1762.67,1561.06 1762.39,1560.22 1762.09,1559.39 1761.79,1558.56 1761.47,1557.74 1761.14,1556.92 1760.8,1556.1 1760.44,1555.3 1760.07,1554.49 1759.69,1553.69 1759.3,1552.9 1758.9,1552.12 1758.48,1551.34 1758.06,1550.56 1757.62,1549.79 1757.17,1549.03 1756.71,1548.28 1756.24,1547.53 1755.76,1546.79 1755.26,1546.06 1754.76,1545.34 1754.24,1544.62 1753.72,1543.91 1753.18,1543.21 " />
        <polyline
           transform="matrix(0.27026932,0,0,0.27026932,542.09316,2580.5448)"
           style="vector-effect:none;fill:none"
           id="polyline260"
           points="1679.21,1645.21 1620.16,1645.21 " />
        <polyline
           transform="matrix(0.27026932,0,0,0.27026932,542.09316,2580.5448)"
           style="vector-effect:none;fill:none"
           id="polyline262"
           points="1565.47,1631.79 1566.57,1632.36 1567.68,1632.92 1568.79,1633.46 1569.9,1633.99 1571.02,1634.51 1572.15,1635.02 1573.28,1635.51 1574.42,1636 1575.56,1636.47 1576.71,1636.93 1577.86,1637.38 1579.02,1637.82 1580.18,1638.24 1581.34,1638.65 1582.51,1639.05 1583.68,1639.44 1584.86,1639.82 1586.04,1640.18 1587.23,1640.53 1588.42,1640.87 1589.61,1641.2 1590.8,1641.51 1592,1641.81 1593.21,1642.1 1594.41,1642.37 1595.62,1642.64 1596.83,1642.89 1598.04,1643.13 1599.26,1643.35 1600.47,1643.56 1601.69,1643.76 1602.91,1643.95 1604.14,1644.12 1605.36,1644.28 1606.59,1644.43 1607.82,1644.57 1609.05,1644.69 1610.28,1644.8 1611.51,1644.9 1612.74,1644.98 1613.98,1645.05 1615.21,1645.11 1616.45,1645.16 1617.68,1645.19 1618.92,1645.21 1620.16,1645.21 " />
        <polyline
           transform="matrix(0.27026932,0,0,0.27026932,542.09316,2580.5448)"
           style="vector-effect:none;fill:none"
           id="polyline264"
           points="1546.19,1543.21 1545.65,1543.91 1545.12,1544.62 1544.61,1545.34 1544.1,1546.06 1543.61,1546.79 1543.13,1547.53 1542.65,1548.28 1542.19,1549.03 1541.74,1549.79 1541.31,1550.56 1540.88,1551.34 1540.47,1552.12 1540.06,1552.9 1539.67,1553.69 1539.29,1554.49 1538.93,1555.3 1538.57,1556.1 1538.23,1556.92 1537.9,1557.74 1537.58,1558.56 1537.27,1559.39 1536.98,1560.22 1536.7,1561.06 1536.43,1561.9 1536.17,1562.75 1535.93,1563.6 1535.7,1564.45 1535.48,1565.3 1535.27,1566.16 1535.08,1567.03 1534.9,1567.89 1534.74,1568.76 1534.58,1569.63 1534.44,1570.5 1534.31,1571.37 1534.2,1572.25 1534.1,1573.13 1534.01,1574.01 1533.94,1574.89 1533.87,1575.77 1533.83,1576.65 1533.79,1577.53 1533.77,1578.42 1533.76,1579.3 1533.76,1580.18 1533.78,1581.07 1533.81,1581.95 1533.86,1582.83 1533.91,1583.71 1533.98,1584.59 1534.07,1585.47 1534.16,1586.35 1534.27,1587.23 1534.4,1588.1 1534.53,1588.98 1534.68,1589.85 1534.84,1590.71 1535.02,1591.58 1535.21,1592.44 1535.41,1593.3 1535.62,1594.16 1535.85,1595.01 1536.09,1595.87 1536.34,1596.71 1536.6,1597.55 1536.88,1598.39 1537.17,1599.23 1537.47,1600.06 1537.79,1600.88 1538.11,1601.7 1538.45,1602.52 1538.8,1603.33 1539.17,1604.14 1539.54,1604.94 1539.93,1605.73 1540.33,1606.52 1540.74,1607.3 1541.16,1608.08 1541.6,1608.85 1542.04,1609.61 1542.5,1610.36 1542.97,1611.11 1543.45,1611.86 1543.94,1612.59 1544.44,1613.32 1544.95,1614.04 1545.47,1614.75 1546,1615.45 1546.55,1616.15 1547.1,1616.84 1547.67,1617.52 1548.24,1618.19 1548.83,1618.85 1549.42,1619.5 1550.02,1620.15 1550.64,1620.78 1551.26,1621.41 1551.89,1622.03 1552.53,1622.64 1553.19,1623.23 1553.84,1623.82 1554.51,1624.4 1555.19,1624.97 1555.87,1625.52 1556.57,1626.07 1557.27,1626.61 1557.98,1627.13 1558.7,1627.65 1559.42,1628.16 1560.15,1628.65 1560.89,1629.13 1561.64,1629.6 1562.39,1630.07 1563.15,1630.51 1563.92,1630.95 1564.69,1631.38 1565.47,1631.79 " />
        <polyline
           transform="matrix(0.27026932,0,0,0.27026932,542.09316,2580.5448)"
           style="vector-effect:none;fill:none"
           id="polyline266"
           points="1561.1,1499.72 1561.09,1500.68 1561.07,1501.63 1561.04,1502.59 1561,1503.54 1560.94,1504.49 1560.87,1505.45 1560.78,1506.4 1560.69,1507.35 1560.58,1508.3 1560.46,1509.25 1560.32,1510.19 1560.17,1511.14 1560.01,1512.08 1559.84,1513.02 1559.66,1513.96 1559.46,1514.89 1559.25,1515.82 1559.02,1516.75 1558.79,1517.68 1558.54,1518.6 1558.28,1519.52 1558,1520.43 1557.72,1521.35 1557.42,1522.25 1557.11,1523.16 1556.79,1524.06 1556.46,1524.95 1556.11,1525.84 1555.75,1526.73 1555.38,1527.61 1555,1528.49 1554.61,1529.36 1554.2,1530.22 1553.78,1531.08 1553.35,1531.94 1552.91,1532.78 1552.46,1533.63 1552,1534.46 1551.53,1535.29 1551.04,1536.12 1550.54,1536.93 1550.04,1537.74 1549.52,1538.54 1548.99,1539.34 1548.45,1540.13 1547.9,1540.91 1547.34,1541.68 1546.77,1542.45 1546.19,1543.21 " />
        <polyline
           transform="matrix(0.27026932,0,0,0.27026932,542.09316,2580.5448)"
           style="vector-effect:none;fill:none"
           id="polyline268"
           points="1561.1,1435.87 1561.1,1499.72 " />
        <polyline
           transform="matrix(0.27026932,0,0,0.27026932,542.09316,2580.5448)"
           style="vector-effect:none;fill:none"
           id="polyline270"
           points="1536.77,1382.43 1537.49,1383.07 1538.21,1383.71 1538.91,1384.37 1539.6,1385.03 1540.29,1385.71 1540.96,1386.39 1541.63,1387.08 1542.29,1387.79 1542.93,1388.5 1543.57,1389.22 1544.2,1389.94 1544.82,1390.68 1545.43,1391.42 1546.02,1392.18 1546.61,1392.94 1547.19,1393.7 1547.75,1394.48 1548.31,1395.26 1548.86,1396.06 1549.39,1396.85 1549.91,1397.66 1550.43,1398.47 1550.93,1399.29 1551.42,1400.12 1551.9,1400.95 1552.37,1401.79 1552.82,1402.64 1553.27,1403.49 1553.7,1404.35 1554.12,1405.21 1554.53,1406.08 1554.93,1406.95 1555.32,1407.83 1555.69,1408.72 1556.05,1409.61 1556.4,1410.5 1556.74,1411.4 1557.07,1412.31 1557.38,1413.22 1557.68,1414.13 1557.97,1415.05 1558.25,1415.97 1558.51,1416.89 1558.76,1417.82 1559,1418.75 1559.23,1419.68 1559.44,1420.62 1559.64,1421.56 1559.83,1422.5 1560,1423.45 1560.16,1424.39 1560.31,1425.34 1560.45,1426.29 1560.57,1427.25 1560.68,1428.2 1560.78,1429.16 1560.87,1430.12 1560.94,1431.07 1561,1432.03 1561.04,1432.99 1561.07,1433.95 1561.09,1434.91 1561.1,1435.87 " />
        <polyline
           transform="matrix(0.27026932,0,0,0.27026932,542.09316,2580.5448)"
           style="vector-effect:none;fill:none"
           id="polyline272"
           points="1522.32,1369.84 1536.77,1382.43 " />
        <polyline
           transform="matrix(0.27026932,0,0,0.27026932,542.09316,2580.5448)"
           style="vector-effect:none;fill:none"
           id="polyline274"
           points="1502.04,1325.31 1502.05,1326.19 1502.07,1327.08 1502.1,1327.96 1502.15,1328.85 1502.21,1329.73 1502.28,1330.61 1502.37,1331.49 1502.47,1332.37 1502.58,1333.25 1502.71,1334.13 1502.85,1335 1503,1335.87 1503.16,1336.74 1503.34,1337.61 1503.53,1338.47 1503.73,1339.33 1503.95,1340.19 1504.18,1341.05 1504.42,1341.9 1504.68,1342.75 1504.95,1343.59 1505.23,1344.43 1505.52,1345.26 1505.82,1346.1 1506.14,1346.92 1506.47,1347.74 1506.81,1348.56 1507.17,1349.37 1507.54,1350.18 1507.91,1350.98 1508.31,1351.77 1508.71,1352.56 1509.12,1353.34 1509.55,1354.12 1509.99,1354.89 1510.43,1355.65 1510.9,1356.4 1511.37,1357.15 1511.85,1357.89 1512.34,1358.63 1512.85,1359.36 1513.36,1360.08 1513.89,1360.79 1514.43,1361.49 1514.98,1362.19 1515.53,1362.87 1516.1,1363.55 1516.68,1364.22 1517.27,1364.88 1517.87,1365.54 1518.47,1366.18 1519.09,1366.81 1519.72,1367.44 1520.35,1368.05 1521,1368.66 1521.65,1369.26 1522.32,1369.84 " />
        <polyline
           transform="matrix(0.27026932,0,0,0.27026932,542.09316,2580.5448)"
           style="vector-effect:none;fill:none"
           id="polyline276"
           points="1522.32,1211.92 1521.65,1212.51 1521,1213.11 1520.35,1213.71 1519.72,1214.33 1519.09,1214.95 1518.47,1215.59 1517.87,1216.23 1517.27,1216.88 1516.68,1217.54 1516.1,1218.21 1515.53,1218.89 1514.98,1219.58 1514.43,1220.28 1513.89,1220.98 1513.36,1221.69 1512.85,1222.41 1512.34,1223.14 1511.85,1223.87 1511.37,1224.61 1510.9,1225.36 1510.43,1226.12 1509.99,1226.88 1509.55,1227.65 1509.12,1228.43 1508.71,1229.21 1508.31,1230 1507.91,1230.79 1507.54,1231.59 1507.17,1232.4 1506.81,1233.21 1506.47,1234.02 1506.14,1234.85 1505.82,1235.67 1505.52,1236.5 1505.23,1237.34 1504.95,1238.18 1504.68,1239.02 1504.42,1239.87 1504.18,1240.72 1503.95,1241.57 1503.73,1242.43 1503.53,1243.29 1503.34,1244.16 1503.16,1245.03 1503,1245.89 1502.85,1246.77 1502.71,1247.64 1502.58,1248.52 1502.47,1249.4 1502.37,1250.27 1502.28,1251.16 1502.21,1252.04 1502.15,1252.92 1502.1,1253.8 1502.07,1254.69 1502.05,1255.57 1502.04,1256.46 " />
        <polyline
           transform="matrix(0.27026932,0,0,0.27026932,542.09316,2580.5448)"
           style="vector-effect:none;fill:none"
           id="polyline278"
           points="1522.32,1211.92 1536.77,1199.33 " />
        <polyline
           transform="matrix(0.27026932,0,0,0.27026932,542.09316,2580.5448)"
           style="vector-effect:none;fill:none"
           id="polyline280"
           points="1536.77,1199.33 1537.49,1198.7 1538.21,1198.05 1538.91,1197.4 1539.6,1196.73 1540.29,1196.06 1540.96,1195.37 1541.63,1194.68 1542.29,1193.98 1542.93,1193.27 1543.57,1192.55 1544.2,1191.82 1544.82,1191.09 1545.43,1190.34 1546.02,1189.59 1546.61,1188.83 1547.19,1188.06 1547.75,1187.29 1548.31,1186.5 1548.86,1185.71 1549.39,1184.91 1549.91,1184.11 1550.43,1183.29 1550.93,1182.47 1551.42,1181.65 1551.9,1180.81 1552.37,1179.98 1552.82,1179.13 1553.27,1178.28 1553.7,1177.42 1554.12,1176.56 1554.53,1175.69 1554.93,1174.81 1555.32,1173.93 1555.69,1173.05 1556.05,1172.16 1556.4,1171.26 1556.74,1170.36 1557.07,1169.46 1557.38,1168.55 1557.68,1167.64 1557.97,1166.72 1558.25,1165.8 1558.51,1164.88 1558.76,1163.95 1559,1163.02 1559.23,1162.08 1559.44,1161.15 1559.64,1160.21 1559.83,1159.27 1560,1158.32 1560.16,1157.37 1560.31,1156.42 1560.45,1155.47 1560.57,1154.52 1560.68,1153.56 1560.78,1152.61 1560.87,1151.65 1560.94,1150.69 1561,1149.73 1561.04,1148.77 1561.07,1147.81 1561.09,1146.85 1561.1,1145.89 " />
        <polyline
           transform="matrix(0.27026932,0,0,0.27026932,542.09316,2580.5448)"
           style="vector-effect:none;fill:none"
           id="polyline282"
           points="1561.1,1145.89 1561.1,1082.05 " />
        <polyline
           transform="matrix(0.27026932,0,0,0.27026932,542.09316,2580.5448)"
           style="vector-effect:none;fill:none"
           id="polyline284"
           points="1561.1,1082.05 1561.09,1081.09 1561.07,1080.14 1561.04,1079.18 1561,1078.23 1560.94,1077.27 1560.87,1076.32 1560.78,1075.37 1560.69,1074.42 1560.58,1073.47 1560.46,1072.52 1560.32,1071.57 1560.17,1070.63 1560.01,1069.69 1559.84,1068.75 1559.66,1067.81 1559.46,1066.88 1559.25,1065.94 1559.02,1065.02 1558.79,1064.09 1558.54,1063.17 1558.28,1062.25 1558,1061.33 1557.72,1060.42 1557.42,1059.51 1557.11,1058.61 1556.79,1057.71 1556.46,1056.81 1556.11,1055.92 1555.75,1055.04 1555.38,1054.16 1555,1053.28 1554.61,1052.41 1554.2,1051.54 1553.78,1050.68 1553.35,1049.83 1552.91,1048.98 1552.46,1048.14 1552,1047.3 1551.53,1046.47 1551.04,1045.65 1550.54,1044.84 1550.04,1044.03 1549.52,1043.22 1548.99,1042.43 1548.45,1041.64 1547.9,1040.86 1547.34,1040.08 1546.77,1039.32 1546.19,1038.56 " />
        <polyline
           transform="matrix(0.27026932,0,0,0.27026932,542.09316,2580.5448)"
           style="vector-effect:none;fill:none"
           id="polyline286"
           points="1565.47,949.973 1564.69,950.388 1563.92,950.814 1563.15,951.252 1562.39,951.701 1561.64,952.162 1560.89,952.634 1560.15,953.117 1559.42,953.611 1558.7,954.116 1557.98,954.632 1557.27,955.158 1556.57,955.695 1555.87,956.243 1555.19,956.8 1554.51,957.368 1553.84,957.946 1553.19,958.534 1552.53,959.132 1551.89,959.739 1551.26,960.356 1550.64,960.982 1550.02,961.618 1549.42,962.262 1548.83,962.916 1548.24,963.578 1547.67,964.249 1547.1,964.929 1546.55,965.617 1546,966.313 1545.47,967.017 1544.95,967.729 1544.44,968.449 1543.94,969.177 1543.45,969.912 1542.97,970.654 1542.5,971.403 1542.04,972.159 1541.6,972.922 1541.16,973.691 1540.74,974.467 1540.33,975.249 1539.93,976.037 1539.54,976.831 1539.17,977.631 1538.8,978.436 1538.45,979.247 1538.11,980.062 1537.79,980.883 1537.47,981.709 1537.17,982.539 1536.88,983.373 1536.6,984.212 1536.34,985.055 1536.09,985.902 1535.85,986.752 1535.62,987.606 1535.41,988.463 1535.21,989.323 1535.02,990.186 1534.84,991.052 1534.68,991.921 1534.53,992.791 1534.4,993.664 1534.27,994.539 1534.16,995.416 1534.07,996.294 1533.98,997.173 1533.91,998.054 1533.86,998.935 1533.81,999.817 1533.78,1000.7 1533.76,1001.58 1533.76,1002.47 1533.77,1003.35 1533.79,1004.23 1533.83,1005.12 1533.87,1006 1533.94,1006.88 1534.01,1007.76 1534.1,1008.64 1534.2,1009.52 1534.31,1010.39 1534.44,1011.27 1534.58,1012.14 1534.74,1013.01 1534.9,1013.88 1535.08,1014.74 1535.27,1015.6 1535.48,1016.46 1535.7,1017.32 1535.93,1018.17 1536.17,1019.02 1536.43,1019.87 1536.7,1020.71 1536.98,1021.54 1537.27,1022.38 1537.58,1023.21 1537.9,1024.03 1538.23,1024.85 1538.57,1025.66 1538.93,1026.47 1539.29,1027.28 1539.67,1028.07 1540.06,1028.86 1540.47,1029.65 1540.88,1030.43 1541.31,1031.2 1541.74,1031.97 1542.19,1032.73 1542.65,1033.49 1543.13,1034.23 1543.61,1034.97 1544.1,1035.71 1544.61,1036.43 1545.12,1037.15 1545.65,1037.86 1546.19,1038.56 " />
        <polyline
           transform="matrix(0.27026932,0,0,0.27026932,542.09316,2580.5448)"
           style="vector-effect:none;fill:none"
           id="polyline288"
           points="1679.21,936.553 1620.16,936.553 " />
        <polyline
           transform="matrix(0.27026932,0,0,0.27026932,542.09316,2580.5448)"
           style="vector-effect:none;fill:none"
           id="polyline290"
           points="1733.89,949.973 1732.79,949.406 1731.69,948.851 1730.58,948.308 1729.46,947.776 1728.34,947.256 1727.21,946.748 1726.08,946.252 1724.95,945.767 1723.8,945.295 1722.66,944.834 1721.51,944.386 1720.35,943.949 1719.19,943.525 1718.02,943.112 1716.85,942.712 1715.68,942.325 1714.5,941.949 1713.32,941.586 1712.14,941.235 1710.95,940.897 1709.76,940.571 1708.56,940.258 1707.36,939.957 1706.16,939.669 1704.96,939.393 1703.75,939.13 1702.54,938.879 1701.32,938.642 1700.11,938.416 1698.89,938.204 1697.67,938.005 1696.45,937.818 1695.23,937.644 1694,937.483 1692.78,937.334 1691.55,937.199 1690.32,937.076 1689.09,936.966 1687.85,936.869 1686.62,936.785 1685.39,936.714 1684.15,936.656 1682.92,936.611 1681.68,936.579 1680.45,936.559 1679.21,936.553 " />
        <polyline
           transform="matrix(0.27026932,0,0,0.27026932,542.09316,2580.5448)"
           style="vector-effect:none;fill:none"
           id="polyline292"
           points="1753.18,1038.56 1753.72,1037.86 1754.24,1037.15 1754.76,1036.43 1755.26,1035.71 1755.76,1034.97 1756.24,1034.23 1756.71,1033.49 1757.17,1032.73 1757.62,1031.97 1758.06,1031.2 1758.48,1030.43 1758.9,1029.65 1759.3,1028.86 1759.69,1028.07 1760.07,1027.28 1760.44,1026.47 1760.8,1025.66 1761.14,1024.85 1761.47,1024.03 1761.79,1023.21 1762.09,1022.38 1762.39,1021.54 1762.67,1020.71 1762.94,1019.87 1763.19,1019.02 1763.44,1018.17 1763.67,1017.32 1763.89,1016.46 1764.09,1015.6 1764.28,1014.74 1764.46,1013.88 1764.63,1013.01 1764.78,1012.14 1764.92,1011.27 1765.05,1010.39 1765.17,1009.52 1765.27,1008.64 1765.35,1007.76 1765.43,1006.88 1765.49,1006 1765.54,1005.12 1765.57,1004.23 1765.6,1003.35 1765.61,1002.47 1765.6,1001.58 1765.58,1000.7 1765.55,999.817 1765.51,998.935 1765.45,998.054 1765.38,997.173 1765.3,996.294 1765.2,995.416 1765.09,994.539 1764.97,993.664 1764.83,992.791 1764.68,991.921 1764.52,991.052 1764.35,990.186 1764.16,989.323 1763.96,988.463 1763.74,987.606 1763.52,986.752 1763.28,985.902 1763.03,985.055 1762.76,984.212 1762.48,983.373 1762.2,982.539 1761.89,981.709 1761.58,980.883 1761.25,980.062 1760.91,979.247 1760.56,978.436 1760.2,977.631 1759.82,976.831 1759.44,976.037 1759.04,975.249 1758.63,974.467 1758.2,973.691 1757.77,972.922 1757.32,972.159 1756.87,971.403 1756.4,970.654 1755.92,969.912 1755.43,969.177 1754.93,968.449 1754.42,967.729 1753.89,967.017 1753.36,966.313 1752.82,965.617 1752.26,964.929 1751.7,964.249 1751.12,963.578 1750.54,962.916 1749.94,962.262 1749.34,961.618 1748.73,960.982 1748.1,960.356 1747.47,959.739 1746.83,959.132 1746.18,958.534 1745.52,957.946 1744.85,957.368 1744.18,956.8 1743.49,956.243 1742.8,955.695 1742.1,955.158 1741.39,954.632 1740.67,954.116 1739.94,953.611 1739.21,953.117 1738.47,952.634 1737.73,952.162 1736.97,951.701 1736.21,951.252 1735.44,950.814 1734.67,950.388 1733.89,949.973 " />
        <polyline
           transform="matrix(0.27026932,0,0,0.27026932,542.09316,2580.5448)"
           style="vector-effect:none;fill:none"
           id="polyline294"
           points="1738.27,1082.05 1738.27,1081.09 1738.29,1080.14 1738.32,1079.18 1738.37,1078.23 1738.43,1077.27 1738.5,1076.32 1738.58,1075.37 1738.68,1074.42 1738.79,1073.47 1738.91,1072.52 1739.04,1071.57 1739.19,1070.63 1739.35,1069.69 1739.52,1068.75 1739.71,1067.81 1739.91,1066.88 1740.12,1065.94 1740.34,1065.02 1740.58,1064.09 1740.83,1063.17 1741.09,1062.25 1741.36,1061.33 1741.65,1060.42 1741.94,1059.51 1742.25,1058.61 1742.58,1057.71 1742.91,1056.81 1743.26,1055.92 1743.61,1055.04 1743.98,1054.16 1744.37,1053.28 1744.76,1052.41 1745.17,1051.54 1745.58,1050.68 1746.01,1049.83 1746.45,1048.98 1746.9,1048.14 1747.37,1047.3 1747.84,1046.47 1748.33,1045.65 1748.82,1044.84 1749.33,1044.03 1749.85,1043.22 1750.38,1042.43 1750.92,1041.64 1751.47,1040.86 1752.03,1040.08 1752.6,1039.32 1753.18,1038.56 " />
        <polyline
           transform="matrix(0.27026932,0,0,0.27026932,542.09316,2580.5448)"
           style="vector-effect:none;fill:none"
           id="polyline296"
           points="1620.16,936.553 1618.92,936.559 1617.68,936.579 1616.45,936.611 1615.21,936.656 1613.98,936.714 1612.74,936.785 1611.51,936.869 1610.28,936.966 1609.05,937.076 1607.82,937.199 1606.59,937.334 1605.36,937.483 1604.14,937.644 1602.91,937.818 1601.69,938.005 1600.47,938.204 1599.26,938.416 1598.04,938.642 1596.83,938.879 1595.62,939.13 1594.41,939.393 1593.21,939.669 1592,939.957 1590.8,940.258 1589.61,940.571 1588.42,940.897 1587.23,941.235 1586.04,941.586 1584.86,941.949 1583.68,942.325 1582.51,942.712 1581.34,943.112 1580.18,943.525 1579.02,943.949 1577.86,944.386 1576.71,944.834 1575.56,945.295 1574.42,945.767 1573.28,946.252 1572.15,946.748 1571.02,947.256 1569.9,947.776 1568.79,948.308 1567.68,948.851 1566.57,949.406 1565.47,949.973 " />
        <polyline
           transform="matrix(0.27026932,0,0,0.27026932,542.09316,2580.5448)"
           style="vector-effect:none;fill:none"
           id="polyline298"
           points="1797.32,1325.31 1797.32,1256.46 " />
        <polyline
           transform="matrix(0.27026932,0,0,0.27026932,542.09316,2580.5448)"
           style="vector-effect:none;fill:none"
           id="polyline300"
           points="1679.21,1645.21 1680.45,1645.21 1681.68,1645.19 1682.92,1645.16 1684.15,1645.11 1685.39,1645.05 1686.62,1644.98 1687.85,1644.9 1689.09,1644.8 1690.32,1644.69 1691.55,1644.57 1692.78,1644.43 1694,1644.28 1695.23,1644.12 1696.45,1643.95 1697.67,1643.76 1698.89,1643.56 1700.11,1643.35 1701.32,1643.13 1702.54,1642.89 1703.75,1642.64 1704.96,1642.37 1706.16,1642.1 1707.36,1641.81 1708.56,1641.51 1709.76,1641.2 1710.95,1640.87 1712.14,1640.53 1713.32,1640.18 1714.5,1639.82 1715.68,1639.44 1716.85,1639.05 1718.02,1638.65 1719.19,1638.24 1720.35,1637.82 1721.51,1637.38 1722.66,1636.93 1723.8,1636.47 1724.95,1636 1726.08,1635.51 1727.21,1635.02 1728.34,1634.51 1729.46,1633.99 1730.58,1633.46 1731.69,1632.92 1732.79,1632.36 1733.89,1631.79 " />
        <polyline
           transform="matrix(0.27026932,0,0,0.27026932,542.09316,2580.5448)"
           style="vector-effect:none;fill:none"
           id="polyline302"
           points="1502.04,1325.31 1502.04,1256.46 " />
        <polyline
           transform="matrix(0.27026932,0,0,0.27026932,542.09316,2580.5448)"
           style="vector-effect:none;fill:none"
           id="polyline304"
           points="1777.05,1369.84 1777.71,1369.26 1778.37,1368.66 1779.01,1368.05 1779.65,1367.44 1780.27,1366.81 1780.89,1366.18 1781.5,1365.54 1782.1,1364.88 1782.69,1364.22 1783.26,1363.55 1783.83,1362.87 1784.39,1362.19 1784.94,1361.49 1785.47,1360.79 1786,1360.08 1786.52,1359.36 1787.02,1358.63 1787.52,1357.89 1788,1357.15 1788.47,1356.4 1788.93,1355.65 1789.38,1354.89 1789.82,1354.12 1790.24,1353.34 1790.66,1352.56 1791.06,1351.77 1791.45,1350.98 1791.83,1350.18 1792.2,1349.37 1792.55,1348.56 1792.89,1347.74 1793.22,1346.92 1793.54,1346.1 1793.85,1345.26 1794.14,1344.43 1794.42,1343.59 1794.69,1342.75 1794.94,1341.9 1795.18,1341.05 1795.41,1340.19 1795.63,1339.33 1795.83,1338.47 1796.03,1337.61 1796.2,1336.74 1796.37,1335.87 1796.52,1335 1796.66,1334.13 1796.78,1333.25 1796.9,1332.37 1797,1331.49 1797.08,1330.61 1797.15,1329.73 1797.21,1328.85 1797.26,1327.96 1797.29,1327.08 1797.31,1326.19 1797.32,1325.31 " />
        <polyline
           transform="matrix(0.27026932,0,0,0.27026932,542.09316,2580.5448)"
           style="vector-effect:none;fill:none"
           id="polyline306"
           points="1738.27,1435.87 1738.27,1499.72 " />
        <polyline
           transform="matrix(0.27026932,0,0,0.27026932,542.09316,2580.5448)"
           style="vector-effect:none;fill:none"
           id="polyline308"
           points="1528.39,1036.97 1485.86,1000.98 " />
        <polyline
           transform="matrix(0.27026932,0,0,0.27026932,542.09316,2580.5448)"
           style="vector-effect:none;fill:none"
           id="polyline310"
           points="1549.29,1082.05 1549.28,1081.16 1549.26,1080.28 1549.23,1079.4 1549.18,1078.51 1549.12,1077.63 1549.05,1076.75 1548.96,1075.87 1548.87,1074.99 1548.75,1074.11 1548.63,1073.24 1548.49,1072.36 1548.34,1071.49 1548.17,1070.63 1548,1069.76 1547.81,1068.9 1547.6,1068.03 1547.39,1067.18 1547.16,1066.32 1546.92,1065.47 1546.66,1064.63 1546.39,1063.78 1546.11,1062.94 1545.82,1062.11 1545.52,1061.28 1545.2,1060.46 1544.87,1059.63 1544.53,1058.82 1544.18,1058.01 1543.81,1057.2 1543.43,1056.4 1543.04,1055.61 1542.64,1054.82 1542.23,1054.04 1541.8,1053.27 1541.36,1052.5 1540.92,1051.74 1540.46,1050.98 1539.99,1050.23 1539.5,1049.49 1539.01,1048.76 1538.51,1048.03 1537.99,1047.31 1537.47,1046.6 1536.93,1045.9 1536.39,1045.2 1535.83,1044.51 1535.26,1043.84 1534.68,1043.17 1534.1,1042.51 1533.5,1041.85 1532.89,1041.21 1532.28,1040.58 1531.65,1039.95 1531.02,1039.34 1530.37,1038.73 1529.72,1038.13 1529.06,1037.55 1528.39,1036.97 " />
        <polyline
           transform="matrix(0.27026932,0,0,0.27026932,542.09316,2580.5448)"
           style="vector-effect:none;fill:none"
           id="polyline312"
           points="1549.29,1145.89 1549.29,1082.05 " />
        <polyline
           transform="matrix(0.27026932,0,0,0.27026932,542.09316,2580.5448)"
           style="vector-effect:none;fill:none"
           id="polyline314"
           points="1529.02,1190.43 1529.68,1189.84 1530.33,1189.24 1530.98,1188.64 1531.62,1188.02 1532.24,1187.4 1532.86,1186.76 1533.47,1186.12 1534.07,1185.47 1534.65,1184.81 1535.23,1184.14 1535.8,1183.46 1536.36,1182.77 1536.91,1182.08 1537.44,1181.37 1537.97,1180.66 1538.49,1179.94 1538.99,1179.21 1539.48,1178.48 1539.97,1177.74 1540.44,1176.99 1540.9,1176.23 1541.35,1175.47 1541.79,1174.7 1542.21,1173.92 1542.63,1173.14 1543.03,1172.35 1543.42,1171.56 1543.8,1170.76 1544.16,1169.95 1544.52,1169.14 1544.86,1168.33 1545.19,1167.51 1545.51,1166.68 1545.81,1165.85 1546.11,1165.01 1546.39,1164.17 1546.66,1163.33 1546.91,1162.48 1547.15,1161.63 1547.38,1160.78 1547.6,1159.92 1547.8,1159.06 1547.99,1158.19 1548.17,1157.33 1548.34,1156.46 1548.49,1155.58 1548.63,1154.71 1548.75,1153.83 1548.87,1152.96 1548.96,1152.08 1549.05,1151.2 1549.12,1150.31 1549.18,1149.43 1549.23,1148.55 1549.26,1147.66 1549.28,1146.78 1549.29,1145.89 " />
        <polyline
           transform="matrix(0.27026932,0,0,0.27026932,542.09316,2580.5448)"
           style="vector-effect:none;fill:none"
           id="polyline316"
           points="1486.34,1227.59 1529.02,1190.43 " />
        <polyline
           transform="matrix(0.27026932,0,0,0.27026932,542.09316,2580.5448)"
           style="vector-effect:none;fill:none"
           id="polyline318"
           points="1402.16,1220.82 1402.73,1221.49 1403.3,1222.16 1403.89,1222.81 1404.49,1223.46 1405.09,1224.09 1405.71,1224.72 1406.33,1225.34 1406.97,1225.95 1407.61,1226.55 1408.26,1227.14 1408.93,1227.72 1409.59,1228.29 1410.27,1228.85 1410.96,1229.4 1411.65,1229.94 1412.35,1230.47 1413.06,1230.99 1413.78,1231.5 1414.51,1231.99 1415.24,1232.48 1415.98,1232.96 1416.73,1233.42 1417.48,1233.88 1418.24,1234.32 1419.01,1234.75 1419.78,1235.17 1420.56,1235.58 1421.34,1235.97 1422.13,1236.36 1422.93,1236.73 1423.73,1237.09 1424.54,1237.44 1425.35,1237.78 1426.17,1238.1 1426.99,1238.41 1427.82,1238.71 1428.65,1239 1429.49,1239.28 1430.32,1239.54 1431.17,1239.79 1432.01,1240.03 1432.86,1240.25 1433.72,1240.47 1434.57,1240.66 1435.43,1240.85 1436.3,1241.03 1437.16,1241.19 1438.03,1241.34 1438.9,1241.47 1439.77,1241.59 1440.64,1241.7 1441.51,1241.8 1442.39,1241.88 1443.27,1241.95 1444.14,1242.01 1445.02,1242.06 1445.9,1242.09 1446.78,1242.11 1447.66,1242.11 1448.54,1242.1 1449.42,1242.08 1450.3,1242.05 1451.17,1242 1452.05,1241.94 1452.93,1241.87 1453.8,1241.78 1454.68,1241.68 1455.55,1241.57 1456.42,1241.44 1457.29,1241.3 1458.15,1241.15 1459.02,1240.99 1459.88,1240.81 1460.74,1240.62 1461.59,1240.42 1462.45,1240.2 1463.3,1239.98 1464.14,1239.73 1464.98,1239.48 1465.82,1239.22 1466.66,1238.94 1467.49,1238.65 1468.31,1238.34 1469.13,1238.03 1469.95,1237.7 1470.76,1237.36 1471.57,1237.01 1472.37,1236.65 1473.16,1236.27 1473.95,1235.88 1474.74,1235.49 1475.51,1235.07 1476.29,1234.65 1477.05,1234.22 1477.81,1233.77 1478.56,1233.32 1479.31,1232.85 1480.04,1232.37 1480.78,1231.88 1481.5,1231.38 1482.21,1230.87 1482.92,1230.35 1483.62,1229.82 1484.32,1229.28 1485,1228.73 1485.68,1228.16 1486.34,1227.59 " />
        <polyline
           transform="matrix(0.27026932,0,0,0.27026932,542.09316,2580.5448)"
           style="vector-effect:none;fill:none"
           id="polyline320"
           points="1344.76,1151.81 1402.16,1220.82 " />
        <polyline
           transform="matrix(0.27026932,0,0,0.27026932,542.09316,2580.5448)"
           style="vector-effect:none;fill:none"
           id="polyline322"
           points="1345.08,1075.9 1344.52,1076.58 1343.96,1077.27 1343.41,1077.96 1342.87,1078.67 1342.35,1079.38 1341.83,1080.1 1341.33,1080.83 1340.84,1081.57 1340.35,1082.32 1339.88,1083.07 1339.42,1083.82 1338.98,1084.59 1338.54,1085.36 1338.11,1086.14 1337.7,1086.92 1337.3,1087.71 1336.91,1088.51 1336.53,1089.31 1336.17,1090.12 1335.81,1090.93 1335.47,1091.75 1335.15,1092.58 1334.83,1093.4 1334.53,1094.24 1334.23,1095.08 1333.96,1095.92 1333.69,1096.76 1333.44,1097.61 1333.2,1098.47 1332.97,1099.32 1332.75,1100.18 1332.55,1101.05 1332.36,1101.91 1332.19,1102.78 1332.03,1103.65 1331.88,1104.53 1331.74,1105.4 1331.62,1106.28 1331.51,1107.16 1331.41,1108.04 1331.33,1108.93 1331.26,1109.81 1331.2,1110.69 1331.16,1111.58 1331.12,1112.47 1331.11,1113.35 1331.1,1114.24 1331.11,1115.13 1331.14,1116.01 1331.17,1116.9 1331.22,1117.78 1331.28,1118.67 1331.36,1119.55 1331.45,1120.43 1331.55,1121.31 1331.67,1122.19 1331.8,1123.07 1331.94,1123.94 1332.09,1124.82 1332.26,1125.69 1332.44,1126.56 1332.64,1127.42 1332.84,1128.28 1333.07,1129.14 1333.3,1130 1333.54,1130.85 1333.8,1131.7 1334.07,1132.54 1334.36,1133.38 1334.65,1134.22 1334.96,1135.05 1335.28,1135.87 1335.62,1136.7 1335.96,1137.51 1336.32,1138.32 1336.69,1139.13 1337.08,1139.93 1337.47,1140.72 1337.88,1141.51 1338.3,1142.29 1338.73,1143.07 1339.17,1143.84 1339.62,1144.6 1340.08,1145.35 1340.56,1146.1 1341.05,1146.84 1341.54,1147.58 1342.05,1148.3 1342.57,1149.02 1343.1,1149.73 1343.64,1150.43 1344.2,1151.13 1344.76,1151.81 " />
        <polyline
           transform="matrix(0.27026932,0,0,0.27026932,542.09316,2580.5448)"
           style="vector-effect:none;fill:none"
           id="polyline324"
           points="1402.64,1007.9 1345.08,1075.9 " />
        <polyline
           transform="matrix(0.27026932,0,0,0.27026932,542.09316,2580.5448)"
           style="vector-effect:none;fill:none"
           id="polyline326"
           points="1485.86,1000.98 1485.19,1000.41 1484.5,999.857 1483.8,999.312 1483.1,998.778 1482.39,998.253 1481.67,997.74 1480.94,997.237 1480.21,996.746 1479.47,996.265 1478.72,995.796 1477.97,995.337 1477.2,994.89 1476.43,994.455 1475.66,994.031 1474.88,993.619 1474.09,993.218 1473.3,992.83 1472.5,992.453 1471.69,992.088 1470.88,991.735 1470.07,991.395 1469.25,991.066 1468.42,990.75 1467.59,990.447 1466.76,990.156 1465.92,989.877 1465.08,989.611 1464.23,989.357 1463.38,989.116 1462.53,988.888 1461.67,988.673 1460.81,988.471 1459.95,988.281 1459.08,988.105 1458.22,987.941 1457.34,987.79 1456.47,987.653 1455.6,987.528 1454.72,987.417 1453.84,987.318 1452.96,987.233 1452.08,987.161 1451.2,987.102 1450.32,987.057 1449.44,987.024 1448.55,987.005 1447.67,986.999 1446.79,987.006 1445.9,987.027 1445.02,987.061 1444.14,987.107 1443.26,987.167 1442.38,987.241 1441.5,987.327 1440.62,987.427 1439.74,987.539 1438.87,987.665 1438,987.804 1437.13,987.956 1436.26,988.121 1435.39,988.298 1434.53,988.489 1433.67,988.693 1432.81,988.909 1431.96,989.138 1431.11,989.38 1430.26,989.635 1429.42,989.902 1428.58,990.182 1427.75,990.475 1426.92,990.779 1426.1,991.097 1425.28,991.426 1424.46,991.768 1423.65,992.122 1422.85,992.488 1422.05,992.865 1421.26,993.255 1420.47,993.657 1419.69,994.07 1418.92,994.495 1418.15,994.932 1417.39,995.38 1416.63,995.839 1415.88,996.31 1415.14,996.791 1414.41,997.284 1413.68,997.788 1412.97,998.302 1412.26,998.827 1411.55,999.363 1410.86,999.909 1410.17,1000.47 1409.49,1001.03 1408.83,1001.61 1408.16,1002.2 1407.51,1002.79 1406.87,1003.4 1406.24,1004.01 1405.61,1004.64 1405,1005.27 1404.39,1005.92 1403.8,1006.57 1403.21,1007.23 1402.64,1007.9 " />
        <polyline
           transform="matrix(0.27026932,0,0,0.27026932,542.09316,2580.5448)"
           style="vector-effect:none;fill:none"
           id="polyline328"
           points="1813.02,1354.18 1770.35,1391.34 " />
        <polyline
           transform="matrix(0.27026932,0,0,0.27026932,542.09316,2580.5448)"
           style="vector-effect:none;fill:none"
           id="polyline330"
           points="1897.21,1360.95 1896.64,1360.27 1896.06,1359.61 1895.47,1358.96 1894.88,1358.31 1894.27,1357.67 1893.66,1357.05 1893.03,1356.43 1892.4,1355.82 1891.75,1355.22 1891.1,1354.63 1890.44,1354.05 1889.77,1353.48 1889.09,1352.92 1888.41,1352.37 1887.71,1351.83 1887.01,1351.3 1886.3,1350.78 1885.58,1350.27 1884.86,1349.77 1884.13,1349.29 1883.39,1348.81 1882.64,1348.35 1881.89,1347.89 1881.13,1347.45 1880.36,1347.02 1879.59,1346.6 1878.81,1346.19 1878.02,1345.79 1877.23,1345.41 1876.43,1345.04 1875.63,1344.68 1874.83,1344.33 1874.01,1343.99 1873.2,1343.67 1872.37,1343.35 1871.55,1343.05 1870.72,1342.77 1869.88,1342.49 1869.04,1342.23 1868.2,1341.98 1867.35,1341.74 1866.5,1341.51 1865.65,1341.3 1864.79,1341.1 1863.93,1340.92 1863.07,1340.74 1862.21,1340.58 1861.34,1340.43 1860.47,1340.3 1859.6,1340.17 1858.73,1340.06 1857.85,1339.97 1856.98,1339.88 1856.1,1339.81 1855.22,1339.76 1854.34,1339.71 1853.47,1339.68 1852.59,1339.66 1851.71,1339.66 1850.83,1339.66 1849.95,1339.69 1849.07,1339.72 1848.19,1339.77 1847.31,1339.83 1846.44,1339.9 1845.56,1339.99 1844.69,1340.09 1843.82,1340.2 1842.95,1340.32 1842.08,1340.46 1841.21,1340.61 1840.35,1340.78 1839.49,1340.96 1838.63,1341.15 1837.77,1341.35 1836.92,1341.56 1836.07,1341.79 1835.22,1342.03 1834.38,1342.29 1833.54,1342.55 1832.71,1342.83 1831.88,1343.12 1831.05,1343.42 1830.23,1343.74 1829.42,1344.07 1828.6,1344.4 1827.8,1344.76 1827,1345.12 1826.2,1345.5 1825.41,1345.88 1824.63,1346.28 1823.85,1346.69 1823.08,1347.11 1822.31,1347.55 1821.56,1347.99 1820.8,1348.45 1820.06,1348.92 1819.32,1349.39 1818.59,1349.88 1817.87,1350.38 1817.15,1350.89 1816.44,1351.42 1815.74,1351.95 1815.05,1352.49 1814.37,1353.04 1813.69,1353.6 1813.02,1354.18 " />
        <polyline
           transform="matrix(0.27026932,0,0,0.27026932,542.09316,2580.5448)"
           style="vector-effect:none;fill:none"
           id="polyline332"
           points="1954.61,1429.95 1897.21,1360.95 " />
        <polyline
           transform="matrix(0.27026932,0,0,0.27026932,542.09316,2580.5448)"
           style="vector-effect:none;fill:none"
           id="polyline334"
           points="1954.28,1505.87 1954.85,1505.19 1955.41,1504.5 1955.95,1503.8 1956.49,1503.1 1957.02,1502.38 1957.53,1501.66 1958.04,1500.93 1958.53,1500.2 1959.01,1499.45 1959.48,1498.7 1959.94,1497.94 1960.39,1497.18 1960.83,1496.41 1961.25,1495.63 1961.66,1494.84 1962.07,1494.05 1962.45,1493.26 1962.83,1492.45 1963.2,1491.65 1963.55,1490.83 1963.89,1490.01 1964.22,1489.19 1964.54,1488.36 1964.84,1487.53 1965.13,1486.69 1965.41,1485.85 1965.68,1485 1965.93,1484.15 1966.17,1483.3 1966.4,1482.44 1966.61,1481.58 1966.81,1480.72 1967,1479.85 1967.18,1478.98 1967.34,1478.11 1967.49,1477.24 1967.63,1476.36 1967.75,1475.49 1967.86,1474.61 1967.96,1473.72 1968.04,1472.84 1968.11,1471.96 1968.17,1471.07 1968.21,1470.19 1968.24,1469.3 1968.26,1468.41 1968.26,1467.53 1968.25,1466.64 1968.23,1465.76 1968.19,1464.87 1968.14,1463.98 1968.08,1463.1 1968,1462.22 1967.92,1461.33 1967.81,1460.45 1967.7,1459.57 1967.57,1458.7 1967.43,1457.82 1967.27,1456.95 1967.1,1456.08 1966.92,1455.21 1966.73,1454.35 1966.52,1453.48 1966.3,1452.62 1966.07,1451.77 1965.82,1450.92 1965.56,1450.07 1965.29,1449.23 1965.01,1448.39 1964.71,1447.55 1964.4,1446.72 1964.08,1445.89 1963.75,1445.07 1963.4,1444.25 1963.04,1443.44 1962.67,1442.64 1962.29,1441.84 1961.89,1441.04 1961.49,1440.26 1961.07,1439.47 1960.64,1438.7 1960.2,1437.93 1959.75,1437.17 1959.28,1436.41 1958.81,1435.66 1958.32,1434.92 1957.82,1434.19 1957.31,1433.46 1956.79,1432.75 1956.26,1432.04 1955.72,1431.33 1955.17,1430.64 1954.61,1429.95 " />
        <polyline
           transform="matrix(0.27026932,0,0,0.27026932,542.09316,2580.5448)"
           style="vector-effect:none;fill:none"
           id="polyline336"
           points="1896.73,1573.87 1954.28,1505.87 " />
        <polyline
           transform="matrix(0.27026932,0,0,0.27026932,542.09316,2580.5448)"
           style="vector-effect:none;fill:none"
           id="polyline338"
           points="1813.5,1580.79 1814.18,1581.35 1814.87,1581.91 1815.56,1582.45 1816.26,1582.99 1816.98,1583.51 1817.69,1584.03 1818.42,1584.53 1819.16,1585.02 1819.9,1585.5 1820.65,1585.97 1821.4,1586.43 1822.16,1586.88 1822.93,1587.31 1823.71,1587.74 1824.49,1588.15 1825.28,1588.55 1826.07,1588.94 1826.87,1589.31 1827.67,1589.68 1828.48,1590.03 1829.3,1590.37 1830.12,1590.7 1830.94,1591.02 1831.77,1591.32 1832.61,1591.61 1833.44,1591.89 1834.29,1592.16 1835.13,1592.41 1835.98,1592.65 1836.84,1592.88 1837.69,1593.09 1838.55,1593.3 1839.42,1593.49 1840.28,1593.66 1841.15,1593.83 1842.02,1593.98 1842.89,1594.11 1843.77,1594.24 1844.64,1594.35 1845.52,1594.45 1846.4,1594.53 1847.28,1594.61 1848.16,1594.66 1849.05,1594.71 1849.93,1594.74 1850.81,1594.76 1851.7,1594.77 1852.58,1594.76 1853.46,1594.74 1854.34,1594.71 1855.23,1594.66 1856.11,1594.6 1856.99,1594.53 1857.87,1594.44 1858.75,1594.34 1859.62,1594.23 1860.5,1594.1 1861.37,1593.96 1862.24,1593.81 1863.11,1593.65 1863.97,1593.47 1864.84,1593.28 1865.7,1593.07 1866.55,1592.86 1867.4,1592.63 1868.25,1592.39 1869.1,1592.13 1869.94,1591.86 1870.78,1591.58 1871.61,1591.29 1872.44,1590.99 1873.27,1590.67 1874.09,1590.34 1874.9,1590 1875.71,1589.65 1876.52,1589.28 1877.31,1588.9 1878.11,1588.51 1878.89,1588.11 1879.67,1587.7 1880.45,1587.27 1881.22,1586.84 1881.98,1586.39 1882.73,1585.93 1883.48,1585.46 1884.22,1584.98 1884.96,1584.48 1885.68,1583.98 1886.4,1583.46 1887.11,1582.94 1887.81,1582.4 1888.51,1581.86 1889.19,1581.3 1889.87,1580.73 1890.54,1580.16 1891.2,1579.57 1891.85,1578.97 1892.49,1578.37 1893.13,1577.75 1893.75,1577.13 1894.37,1576.49 1894.97,1575.85 1895.57,1575.2 1896.15,1574.54 1896.73,1573.87 " />
        <polyline
           transform="matrix(0.27026932,0,0,0.27026932,542.09316,2580.5448)"
           style="vector-effect:none;fill:none"
           id="polyline340"
           points="1770.98,1544.8 1813.5,1580.79 " />
        <polyline
           transform="matrix(0.27026932,0,0,0.27026932,542.09316,2580.5448)"
           style="vector-effect:none;fill:none"
           id="polyline342"
           points="1750.08,1499.72 1750.08,1500.6 1750.1,1501.49 1750.14,1502.37 1750.18,1503.25 1750.24,1504.14 1750.31,1505.02 1750.4,1505.9 1750.5,1506.78 1750.61,1507.65 1750.74,1508.53 1750.88,1509.4 1751.03,1510.27 1751.19,1511.14 1751.37,1512.01 1751.56,1512.87 1751.76,1513.73 1751.98,1514.59 1752.21,1515.44 1752.45,1516.29 1752.7,1517.14 1752.97,1517.98 1753.25,1518.82 1753.54,1519.66 1753.85,1520.49 1754.17,1521.31 1754.49,1522.13 1754.84,1522.95 1755.19,1523.76 1755.56,1524.56 1755.93,1525.36 1756.32,1526.16 1756.73,1526.94 1757.14,1527.73 1757.56,1528.5 1758,1529.27 1758.45,1530.03 1758.91,1530.79 1759.38,1531.54 1759.86,1532.28 1760.35,1533.01 1760.86,1533.74 1761.37,1534.46 1761.9,1535.17 1762.43,1535.87 1762.98,1536.57 1763.54,1537.25 1764.1,1537.93 1764.68,1538.6 1765.27,1539.26 1765.87,1539.91 1766.47,1540.56 1767.09,1541.19 1767.71,1541.82 1768.35,1542.43 1768.99,1543.04 1769.65,1543.63 1770.31,1544.22 1770.98,1544.8 " />
        <polyline
           transform="matrix(0.27026932,0,0,0.27026932,542.09316,2580.5448)"
           style="vector-effect:none;fill:none"
           id="polyline344"
           points="1750.08,1435.87 1750.08,1499.72 " />
        <polyline
           transform="matrix(0.27026932,0,0,0.27026932,542.09316,2580.5448)"
           style="vector-effect:none;fill:none"
           id="polyline346"
           points="1770.35,1391.34 1769.68,1391.93 1769.03,1392.52 1768.39,1393.13 1767.75,1393.74 1767.12,1394.37 1766.51,1395 1765.9,1395.65 1765.3,1396.3 1764.71,1396.96 1764.13,1397.63 1763.56,1398.31 1763.01,1399 1762.46,1399.69 1761.92,1400.4 1761.4,1401.11 1760.88,1401.83 1760.38,1402.55 1759.88,1403.29 1759.4,1404.03 1758.93,1404.78 1758.47,1405.53 1758.02,1406.3 1757.58,1407.07 1757.15,1407.84 1756.74,1408.62 1756.34,1409.41 1755.95,1410.21 1755.57,1411.01 1755.2,1411.81 1754.85,1412.62 1754.5,1413.44 1754.17,1414.26 1753.86,1415.09 1753.55,1415.92 1753.26,1416.75 1752.98,1417.59 1752.71,1418.44 1752.45,1419.28 1752.21,1420.14 1751.98,1420.99 1751.77,1421.85 1751.56,1422.71 1751.37,1423.57 1751.19,1424.44 1751.03,1425.31 1750.88,1426.18 1750.74,1427.06 1750.61,1427.93 1750.5,1428.81 1750.4,1429.69 1750.32,1430.57 1750.24,1431.45 1750.18,1432.34 1750.14,1433.22 1750.1,1434.1 1750.08,1434.99 1750.08,1435.87 " />
        <polyline
           transform="matrix(0.27026932,0,0,0.27026932,542.09316,2580.5448)"
           style="vector-effect:none;fill:none"
           id="polyline348"
           points="1750.08,1145.89 1750.08,1082.05 " />
        <polyline
           transform="matrix(0.27026932,0,0,0.27026932,542.09316,2580.5448)"
           style="vector-effect:none;fill:none"
           id="polyline350"
           points="1750.08,1082.05 1750.08,1081.16 1750.1,1080.28 1750.14,1079.4 1750.18,1078.51 1750.24,1077.63 1750.31,1076.75 1750.4,1075.87 1750.5,1074.99 1750.61,1074.11 1750.74,1073.24 1750.88,1072.36 1751.03,1071.49 1751.19,1070.63 1751.37,1069.76 1751.56,1068.9 1751.76,1068.03 1751.98,1067.18 1752.21,1066.32 1752.45,1065.47 1752.7,1064.63 1752.97,1063.78 1753.25,1062.94 1753.54,1062.11 1753.85,1061.28 1754.17,1060.46 1754.49,1059.63 1754.84,1058.82 1755.19,1058.01 1755.56,1057.2 1755.93,1056.4 1756.32,1055.61 1756.73,1054.82 1757.14,1054.04 1757.56,1053.27 1758,1052.5 1758.45,1051.74 1758.91,1050.98 1759.38,1050.23 1759.86,1049.49 1760.35,1048.76 1760.86,1048.03 1761.37,1047.31 1761.9,1046.6 1762.43,1045.9 1762.98,1045.2 1763.54,1044.51 1764.1,1043.84 1764.68,1043.17 1765.27,1042.51 1765.87,1041.85 1766.47,1041.21 1767.09,1040.58 1767.71,1039.95 1768.35,1039.34 1768.99,1038.73 1769.65,1038.13 1770.31,1037.55 1770.98,1036.97 " />
        <polyline
           transform="matrix(0.27026932,0,0,0.27026932,542.09316,2580.5448)"
           style="vector-effect:none;fill:none"
           id="polyline352"
           points="1770.98,1036.97 1813.5,1000.98 " />
        <polyline
           transform="matrix(0.27026932,0,0,0.27026932,542.09316,2580.5448)"
           style="vector-effect:none;fill:none"
           id="polyline354"
           points="1813.5,1000.98 1814.18,1000.41 1814.87,999.857 1815.56,999.312 1816.26,998.778 1816.98,998.253 1817.69,997.74 1818.42,997.237 1819.16,996.746 1819.9,996.265 1820.65,995.796 1821.4,995.337 1822.16,994.89 1822.93,994.455 1823.71,994.031 1824.49,993.619 1825.28,993.218 1826.07,992.83 1826.87,992.453 1827.67,992.088 1828.48,991.735 1829.3,991.395 1830.12,991.066 1830.94,990.75 1831.77,990.447 1832.61,990.156 1833.44,989.877 1834.29,989.611 1835.13,989.357 1835.98,989.116 1836.84,988.888 1837.69,988.673 1838.55,988.471 1839.42,988.281 1840.28,988.105 1841.15,987.941 1842.02,987.79 1842.89,987.653 1843.77,987.528 1844.64,987.417 1845.52,987.318 1846.4,987.233 1847.28,987.161 1848.16,987.102 1849.05,987.057 1849.93,987.024 1850.81,987.005 1851.7,986.999 1852.58,987.006 1853.46,987.027 1854.34,987.061 1855.23,987.107 1856.11,987.167 1856.99,987.241 1857.87,987.327 1858.75,987.427 1859.62,987.539 1860.5,987.665 1861.37,987.804 1862.24,987.956 1863.11,988.121 1863.97,988.298 1864.84,988.489 1865.7,988.693 1866.55,988.909 1867.4,989.138 1868.25,989.38 1869.1,989.635 1869.94,989.902 1870.78,990.182 1871.61,990.475 1872.44,990.779 1873.27,991.097 1874.09,991.426 1874.9,991.768 1875.71,992.122 1876.52,992.488 1877.31,992.865 1878.11,993.255 1878.89,993.657 1879.67,994.07 1880.45,994.495 1881.22,994.932 1881.98,995.38 1882.73,995.839 1883.48,996.31 1884.22,996.791 1884.96,997.284 1885.68,997.788 1886.4,998.302 1887.11,998.827 1887.81,999.363 1888.51,999.909 1889.19,1000.47 1889.87,1001.03 1890.54,1001.61 1891.2,1002.2 1891.85,1002.79 1892.49,1003.4 1893.13,1004.01 1893.75,1004.64 1894.37,1005.27 1894.97,1005.92 1895.57,1006.57 1896.15,1007.23 1896.73,1007.9 " />
        <polyline
           transform="matrix(0.27026932,0,0,0.27026932,542.09316,2580.5448)"
           style="vector-effect:none;fill:none"
           id="polyline356"
           points="1896.73,1007.9 1954.28,1075.9 " />
        <polyline
           transform="matrix(0.27026932,0,0,0.27026932,542.09316,2580.5448)"
           style="vector-effect:none;fill:none"
           id="polyline358"
           points="1954.28,1075.9 1954.85,1076.58 1955.41,1077.27 1955.95,1077.96 1956.49,1078.67 1957.02,1079.38 1957.53,1080.1 1958.04,1080.83 1958.53,1081.57 1959.01,1082.32 1959.48,1083.07 1959.94,1083.82 1960.39,1084.59 1960.83,1085.36 1961.25,1086.14 1961.66,1086.92 1962.07,1087.71 1962.45,1088.51 1962.83,1089.31 1963.2,1090.12 1963.55,1090.93 1963.89,1091.75 1964.22,1092.58 1964.54,1093.4 1964.84,1094.24 1965.13,1095.08 1965.41,1095.92 1965.68,1096.76 1965.93,1097.61 1966.17,1098.47 1966.4,1099.32 1966.61,1100.18 1966.81,1101.05 1967,1101.91 1967.18,1102.78 1967.34,1103.65 1967.49,1104.53 1967.63,1105.4 1967.75,1106.28 1967.86,1107.16 1967.96,1108.04 1968.04,1108.93 1968.11,1109.81 1968.17,1110.69 1968.21,1111.58 1968.24,1112.47 1968.26,1113.35 1968.26,1114.24 1968.25,1115.13 1968.23,1116.01 1968.19,1116.9 1968.14,1117.78 1968.08,1118.67 1968,1119.55 1967.92,1120.43 1967.81,1121.31 1967.7,1122.19 1967.57,1123.07 1967.43,1123.94 1967.27,1124.82 1967.1,1125.69 1966.92,1126.56 1966.73,1127.42 1966.52,1128.28 1966.3,1129.14 1966.07,1130 1965.82,1130.85 1965.56,1131.7 1965.29,1132.54 1965.01,1133.38 1964.71,1134.22 1964.4,1135.05 1964.08,1135.87 1963.75,1136.7 1963.4,1137.51 1963.04,1138.32 1962.67,1139.13 1962.29,1139.93 1961.89,1140.72 1961.49,1141.51 1961.07,1142.29 1960.64,1143.07 1960.2,1143.84 1959.75,1144.6 1959.28,1145.35 1958.81,1146.1 1958.32,1146.84 1957.82,1147.58 1957.31,1148.3 1956.79,1149.02 1956.26,1149.73 1955.72,1150.43 1955.17,1151.13 1954.61,1151.81 " />
        <polyline
           transform="matrix(0.27026932,0,0,0.27026932,542.09316,2580.5448)"
           style="vector-effect:none;fill:none"
           id="polyline360"
           points="1954.61,1151.81 1897.21,1220.82 " />
        <polyline
           transform="matrix(0.27026932,0,0,0.27026932,542.09316,2580.5448)"
           style="vector-effect:none;fill:none"
           id="polyline362"
           points="1897.21,1220.82 1896.64,1221.49 1896.06,1222.16 1895.47,1222.81 1894.88,1223.46 1894.27,1224.09 1893.66,1224.72 1893.03,1225.34 1892.4,1225.95 1891.75,1226.55 1891.1,1227.14 1890.44,1227.72 1889.77,1228.29 1889.09,1228.85 1888.41,1229.4 1887.71,1229.94 1887.01,1230.47 1886.3,1230.99 1885.58,1231.5 1884.86,1231.99 1884.13,1232.48 1883.39,1232.96 1882.64,1233.42 1881.89,1233.88 1881.13,1234.32 1880.36,1234.75 1879.59,1235.17 1878.81,1235.58 1878.02,1235.97 1877.23,1236.36 1876.43,1236.73 1875.63,1237.09 1874.83,1237.44 1874.01,1237.78 1873.2,1238.1 1872.37,1238.41 1871.55,1238.71 1870.72,1239 1869.88,1239.28 1869.04,1239.54 1868.2,1239.79 1867.35,1240.03 1866.5,1240.25 1865.65,1240.47 1864.79,1240.66 1863.93,1240.85 1863.07,1241.03 1862.21,1241.19 1861.34,1241.34 1860.47,1241.47 1859.6,1241.59 1858.73,1241.7 1857.85,1241.8 1856.98,1241.88 1856.1,1241.95 1855.22,1242.01 1854.34,1242.06 1853.47,1242.09 1852.59,1242.11 1851.71,1242.11 1850.83,1242.1 1849.95,1242.08 1849.07,1242.05 1848.19,1242 1847.31,1241.94 1846.44,1241.87 1845.56,1241.78 1844.69,1241.68 1843.82,1241.57 1842.95,1241.44 1842.08,1241.3 1841.21,1241.15 1840.35,1240.99 1839.49,1240.81 1838.63,1240.62 1837.77,1240.42 1836.92,1240.2 1836.07,1239.98 1835.22,1239.73 1834.38,1239.48 1833.54,1239.22 1832.71,1238.94 1831.88,1238.65 1831.05,1238.34 1830.23,1238.03 1829.42,1237.7 1828.6,1237.36 1827.8,1237.01 1827,1236.65 1826.2,1236.27 1825.41,1235.88 1824.63,1235.49 1823.85,1235.07 1823.08,1234.65 1822.31,1234.22 1821.56,1233.77 1820.8,1233.32 1820.06,1232.85 1819.32,1232.37 1818.59,1231.88 1817.87,1231.38 1817.15,1230.87 1816.44,1230.35 1815.74,1229.82 1815.05,1229.28 1814.37,1228.73 1813.69,1228.16 1813.02,1227.59 " />
        <polyline
           transform="matrix(0.27026932,0,0,0.27026932,542.09316,2580.5448)"
           style="vector-effect:none;fill:none"
           id="polyline364"
           points="1813.02,1227.59 1770.35,1190.43 " />
        <polyline
           transform="matrix(0.27026932,0,0,0.27026932,542.09316,2580.5448)"
           style="vector-effect:none;fill:none"
           id="polyline366"
           points="1770.35,1190.43 1769.68,1189.84 1769.03,1189.24 1768.39,1188.64 1767.75,1188.02 1767.12,1187.4 1766.51,1186.76 1765.9,1186.12 1765.3,1185.47 1764.71,1184.81 1764.13,1184.14 1763.56,1183.46 1763.01,1182.77 1762.46,1182.08 1761.92,1181.37 1761.4,1180.66 1760.88,1179.94 1760.38,1179.21 1759.88,1178.48 1759.4,1177.74 1758.93,1176.99 1758.47,1176.23 1758.02,1175.47 1757.58,1174.7 1757.15,1173.92 1756.74,1173.14 1756.34,1172.35 1755.95,1171.56 1755.57,1170.76 1755.2,1169.95 1754.85,1169.14 1754.5,1168.33 1754.17,1167.51 1753.86,1166.68 1753.55,1165.85 1753.26,1165.01 1752.98,1164.17 1752.71,1163.33 1752.45,1162.48 1752.21,1161.63 1751.98,1160.78 1751.77,1159.92 1751.56,1159.06 1751.37,1158.19 1751.19,1157.33 1751.03,1156.46 1750.88,1155.58 1750.74,1154.71 1750.61,1153.83 1750.5,1152.96 1750.4,1152.08 1750.32,1151.2 1750.24,1150.31 1750.18,1149.43 1750.14,1148.55 1750.1,1147.66 1750.08,1146.78 1750.08,1145.89 " />
        <path
           inkscape:connector-curvature="0"
           id="path5220"
           d="m 931.3259,3010.6509 c -3.4397,-0.5342 -6.5205,-2.093 -8.77817,-4.4414 -2.32053,-2.4139 -17.33747,-20.4327 -17.96029,-21.5505 -2.67111,-4.7942 -2.57087,-10.6573 0.26108,-15.2763 1.23165,-2.0088 17.56475,-21.4821 18.97532,-22.6234 1.35453,-1.0961 3.58723,-2.2728 5.33522,-2.8122 0.63281,-0.1952 2.1745,-0.3976 3.50048,-0.4595 2.75769,-0.1288 4.83254,0.2844 7.29618,1.4529 1.72967,0.8205 2.21454,1.2078 9.96944,7.9627 6.4539,5.6218 7.35737,6.598 8.64297,9.3392 1.39633,2.9773 1.43163,3.3472 1.43163,15.0091 0,11.6619 -0.035,12.0319 -1.43163,15.0092 -1.34388,2.8652 -2.10939,3.6714 -9.17263,9.6584 -3.62727,3.0745 -7.03317,5.8916 -7.56883,6.2602 -2.89206,1.9897 -7.15015,2.992 -10.50077,2.4716 z"
           style="fill:#d59b00;fill-opacity:1;stroke-width:1.02802312" />
        <path
           inkscape:connector-curvature="0"
           id="path5222"
           d="m 930.28989,2915.1626 c -2.50451,-0.5523 -4.78183,-1.663 -6.7994,-3.3162 -1.32939,-1.0894 -18.0557,-21.2779 -18.94609,-22.8678 -0.40112,-0.7162 -0.9655,-2.0115 -1.25422,-2.8785 -0.45498,-1.3662 -0.52674,-1.9462 -0.53815,-4.3519 -0.015,-3.1475 0.34592,-4.7056 1.68006,-7.2552 0.8516,-1.6274 16.85876,-20.7001 19.0032,-22.6424 1.47234,-1.3335 4.25518,-2.803 6.3406,-3.3481 1.79369,-0.4688 5.40257,-0.4688 7.19618,0 0.73505,0.1922 2.16909,0.7605 3.18687,1.2632 1.59522,0.7878 2.80889,1.7254 8.79898,6.7968 7.29551,6.1769 8.11548,7.0221 9.52579,9.8187 1.45028,2.8761 1.51305,3.5088 1.51463,15.2826 0,9.8736 -0.0233,10.602 -0.41443,12.1307 -0.70966,2.7749 -1.95263,5.0671 -3.737,6.8916 -1.49757,1.5313 -13.15224,11.5814 -14.3515,12.3757 -3.07914,2.0394 -7.62178,2.891 -11.20552,2.1008 z"
           style="fill:#d59b00;fill-opacity:1;stroke-width:1.02802312" />
        <path
           inkscape:connector-curvature="0"
           id="path5224"
           d="m 1039.5688,2915.1741 c -1.7867,-0.3761 -3.7546,-1.1853 -5.1722,-2.1269 -1.9925,-1.3235 -14.4299,-12.2943 -15.3846,-13.5703 -0.4845,-0.6477 -1.2388,-1.9177 -1.6763,-2.8224 -1.3665,-2.8256 -1.4038,-3.227 -1.4078,-15.1305 0,-9.9553 0.022,-10.7064 0.4092,-12.2215 0.5155,-2.0156 1.5662,-4.1584 2.798,-5.7067 0.8631,-1.0847 11.4243,-10.2563 14.3683,-12.4777 1.4419,-1.088 3.564,-2.1036 5.4486,-2.6075 1.7863,-0.4776 5.3841,-0.4817 7.1962,-0.01 2.0588,0.5381 4.8693,2.0154 6.3007,3.312 1.4383,1.3028 17.2522,19.8988 18.4154,21.6553 1.4583,2.2019 2.4237,5.4584 2.4237,8.1755 0,2.6333 -0.9188,5.8153 -2.3092,7.9971 -0.3678,0.5773 -4.5629,5.7219 -9.3224,11.4325 -8.964,10.7556 -9.6027,11.4218 -12.2186,12.7451 -2.8532,1.4433 -6.8438,1.9909 -9.869,1.3542 z"
           style="fill:#d59b00;fill-opacity:1;stroke-width:1.02802312" />
        <path
           inkscape:connector-curvature="0"
           id="path5226"
           d="m 1040.494,3010.6516 c -1.8817,-0.2893 -3.7555,-0.9277 -5.3457,-1.8212 -2.0343,-1.143 -14.9306,-12.1151 -16.1159,-13.7113 -0.4957,-0.6675 -1.2592,-1.9538 -1.6967,-2.8584 -1.3665,-2.8256 -1.4038,-3.2271 -1.4078,-15.1305 0,-9.8666 0.025,-10.7171 0.3991,-12.1818 0.4787,-1.8715 1.5228,-4.026 2.7185,-5.6098 0.732,-0.9695 5.3339,-5.1081 13.3065,-11.9667 5.785,-4.9766 13.3935,-5.2803 19.5015,-0.7784 0.9833,0.7247 3.2661,3.3242 9.7248,11.0736 4.642,5.5696 8.7752,10.6289 9.185,11.2429 3.3474,5.0148 3.3082,11.8515 -0.096,16.7751 -1.6101,2.3287 -17.3957,20.7271 -18.6592,21.7478 -3.0984,2.5028 -7.737,3.7994 -11.5139,3.2187 z"
           style="fill:#d59b00;fill-opacity:1;stroke-width:1.02802312" />
        <path
           inkscape:connector-curvature="0"
           id="path5228"
           d="m 976.28982,3024.2183 c -4.86567,-0.5908 -10.32886,-2.6749 -13.31241,-5.0785 -2.43858,-1.9647 -4.41719,-5.0974 -5.15948,-8.1691 -0.46389,-1.9198 -0.46722,-5.3327 -0.008,-7.0934 0.49785,-1.9044 1.54843,-4.0178 3.11202,-6.2605 1.53061,-2.1953 2.31644,-3.8084 3.13183,-6.4286 l 0.56204,-1.806 0.0658,-11.4031 c 0.0716,-12.3707 0.0366,-12.8739 -1.09994,-16.1282 -1.31932,-3.7765 -3.26171,-6.2463 -8.41461,-10.6993 -2.50643,-2.166 -3.66032,-3.5728 -4.74537,-5.7854 -1.50522,-3.0692 -1.51796,-3.2033 -1.52195,-16.039 0,-10.5235 0.025,-11.4369 0.3932,-12.8783 0.88757,-3.4703 2.57936,-5.9086 6.37315,-9.185 4.76468,-4.1149 6.61832,-6.5522 7.94954,-10.4527 1.09571,-3.2101 1.1385,-3.8576 1.06332,-16.1046 -0.0666,-10.9038 -0.0808,-11.2343 -0.5349,-12.8367 -0.6185,-2.1824 -1.99584,-4.9896 -3.37952,-6.8878 -2.37356,-3.2562 -3.30774,-5.9564 -3.30774,-9.5606 0,-4.3668 1.70378,-8.2426 4.91262,-11.1754 2.91313,-2.6624 8.49453,-4.9161 13.76931,-5.56 2.46694,-0.3011 21.17764,-0.3011 23.64454,0 3.72503,0.4546 8.33223,1.9664 11.23833,3.6873 4.6489,2.7531 7.431,7.6431 7.4231,13.0481 -0.01,3.5692 -0.8526,6.0398 -3.2527,9.4822 -1.5806,2.267 -2.7458,4.642 -3.4198,6.9698 -0.4722,1.6314 -0.475,1.7129 -0.475,13.669 0,11.9188 0.01,12.0436 0.4738,13.7618 0.8571,3.1366 2.3632,5.913 4.4422,8.1887 0.5757,0.6301 2.2031,2.1548 3.6167,3.3882 3.2974,2.8774 4.5463,4.343 5.6515,6.6329 1.53,3.1699 1.5446,3.3213 1.5446,15.9934 0,12.677 -0.017,12.8421 -1.6605,16.1177 -1.0183,2.0294 -2.3136,3.4961 -5.727,6.4848 -4.0542,3.5496 -5.8286,5.8709 -7.199,9.4178 -1.2138,3.142 -1.2716,3.9365 -1.1969,16.4803 0.066,11.0479 0.081,11.4212 0.5284,13.0189 0.6035,2.1544 1.9864,4.9669 3.3866,6.8878 1.9948,2.7365 2.84,4.8043 3.2325,7.9075 0.6352,5.0232 -1.7462,10.5899 -5.8281,13.6236 -2.4205,1.7989 -6.4815,3.4881 -10.6039,4.4106 -1.8615,0.4165 -2.57633,0.4434 -13.07193,0.4919 -6.1064,0.028 -11.77521,-0.03 -12.59733,-0.1301 z"
           style="fill:#000000;fill-opacity:1;stroke-width:1.02802312" />
      </g>
    </g>
  </g>
</svg>
