<?xml version="1.0" standalone="no"?>
<!DOCTYPE svg PUBLIC "-//W3C//DTD SVG 20010904//EN"
 "http://www.w3.org/TR/2001/REC-SVG-20010904/DTD/svg10.dtd">
<svg version="1.0" xmlns="http://www.w3.org/2000/svg"
 width="700.000000pt" height="700.000000pt" viewBox="0 0 700.000000 700.000000"
 preserveAspectRatio="xMidYMid meet">
<metadata>
Created by potrace 1.11, written by Peter Selinger 2001-2013
</metadata>
<g transform="translate(0.000000,700.000000) scale(0.100000,-0.100000)"
fill="#000000" stroke="none">
<path d="M3103 6869 c-141 -13 -324 -71 -438 -140 -187 -113 -289 -304 -281
-524 4 -119 37 -210 119 -334 132 -198 135 -219 133 -718 -2 -384 -3 -400 -25
-468 -39 -119 -86 -192 -184 -285 -213 -201 -245 -236 -277 -301 -66 -129 -69
-149 -69 -601 0 -367 2 -412 19 -472 41 -143 74 -187 321 -421 106 -100 152
-171 191 -295 23 -73 23 -84 23 -485 0 -369 -2 -416 -18 -470 -25 -80 -56
-140 -127 -247 -81 -121 -105 -199 -105 -343 1 -89 5 -123 24 -175 82 -232
271 -375 582 -441 96 -20 134 -22 469 -23 385 0 474 4 580 29 296 71 472 210
551 435 19 54 23 86 23 185 0 157 -18 208 -135 381 -53 78 -93 173 -107 254
-11 59 -10 808 1 849 43 162 108 266 238 380 181 158 232 223 280 353 22 61
23 74 27 467 4 453 0 500 -54 613 -44 91 -98 154 -230 269 -143 124 -204 214
-251 364 -16 54 -18 100 -18 470 0 369 2 416 18 469 27 88 54 142 115 229 30
43 68 113 85 155 28 70 31 88 31 197 1 102 -2 130 -23 185 -58 159 -158 272
-304 344 -214 105 -298 118 -747 120 -195 1 -392 -2 -437 -5z"/>
<path d="M1495 6390 c-154 -28 -283 -109 -395 -250 -19 -24 -53 -64 -75 -90
-22 -25 -60 -70 -85 -100 -25 -29 -50 -58 -55 -64 -6 -6 -55 -65 -110 -131
-55 -65 -107 -126 -115 -135 -66 -68 -137 -177 -161 -246 -56 -167 -41 -350
40 -489 16 -27 103 -138 193 -246 90 -108 181 -218 203 -244 61 -73 99 -119
105 -125 3 -3 33 -39 67 -80 75 -92 102 -118 175 -164 187 -118 446 -114 630
11 29 19 58 41 63 47 6 6 59 54 120 106 119 103 137 119 264 231 120 106 190
230 208 365 4 27 7 211 6 409 0 335 -1 365 -21 433 -38 133 -101 224 -232 333
-36 30 -71 59 -78 66 -7 7 -34 29 -60 50 -26 21 -49 41 -52 44 -3 3 -51 44
-107 91 -110 91 -196 143 -277 164 -68 18 -189 25 -251 14z"/>
<path d="M5273 6379 c-135 -34 -152 -45 -463 -308 -238 -202 -269 -234 -320
-336 -59 -118 -65 -172 -64 -586 1 -329 2 -359 22 -430 38 -137 97 -218 261
-359 102 -87 140 -120 225 -196 119 -104 121 -106 187 -146 93 -56 155 -72
289 -73 244 -1 337 60 613 399 18 21 119 143 225 270 206 247 251 319 276 437
13 66 14 177 2 239 -20 101 -81 210 -182 326 -28 33 -131 154 -229 269 -163
194 -258 304 -295 344 -54 58 -161 120 -255 148 -75 23 -208 24 -292 2z"/>
<path d="M1588 3065 c-2 -1 -30 -5 -63 -8 -83 -9 -128 -23 -210 -65 -93 -49
-162 -120 -406 -416 -112 -137 -209 -254 -215 -260 -55 -58 -152 -191 -175
-241 -58 -127 -70 -286 -30 -422 14 -48 78 -165 109 -199 24 -27 119 -139 160
-189 19 -23 122 -144 137 -161 6 -7 71 -83 145 -171 74 -87 157 -178 185 -201
169 -138 403 -167 608 -75 54 24 163 103 247 179 34 31 175 150 235 199 155
127 232 254 254 418 7 55 5 725 -2 767 -16 91 -54 182 -111 259 -40 54 -35 49
-290 270 -28 24 -84 73 -125 110 -104 93 -192 150 -266 173 -33 10 -183 36
-187 33z"/>
<path d="M5418 3065 c-2 -2 -30 -5 -63 -8 -33 -3 -73 -9 -89 -12 -64 -13 -201
-87 -241 -129 -5 -6 -41 -38 -80 -71 -38 -33 -81 -69 -95 -82 -14 -12 -82 -71
-152 -132 -176 -154 -245 -265 -266 -426 -4 -33 -7 -217 -6 -410 1 -295 4
-360 18 -414 30 -114 98 -223 183 -295 20 -17 73 -62 117 -100 45 -38 92 -78
106 -90 14 -11 68 -58 120 -102 166 -143 293 -195 460 -189 202 8 332 85 511
305 29 36 56 67 59 70 3 3 28 32 55 65 28 33 53 62 56 65 5 5 102 120 257 305
160 191 206 388 138 593 -38 115 -51 131 -386 532 -21 25 -97 115 -168 201
-167 200 -232 252 -367 293 -47 15 -162 36 -167 31z"/>
</g>
</svg>
